<?xml version="1.0" encoding="UTF-8" standalone="no"?><svg xmlns="http://www.w3.org/2000/svg" xmlns:xlink="http://www.w3.org/1999/xlink" clip-rule="evenodd" stroke-miterlimit="10" viewBox="0 0 1024 768"><desc>SVG generated by Keynote</desc><defs></defs><g transform="matrix(1.00, 0.00, -0.00, -1.00, 0.0, 768.0)"><path d="M 0.0 768.0 L 1024.0 768.0 L 1024.0 0.0 L 0.0 0.0 Z M 0.0 768.0 " fill="#FEFFFF"></path><text xml:space="preserve" font-family="ProximaNova-Bold,Proxima Nova" font-weight="bold" font-size="54.0" fill="#EE5B67" transform="matrix(1.00, 0.00, -0.00, -1.00, 120.1, 429.8)">L</text><text xml:space="preserve" font-family="ProximaNova-Bold,Proxima Nova" font-weight="bold" font-size="54.0" fill="#EE5B67" transform="matrix(1.00, 0.00, -0.00, -1.00, 147.9, 429.8)">i</text><text xml:space="preserve" font-family="ProximaNova-Bold,Proxima Nova" font-weight="bold" font-size="54.0" fill="#EE5B67" transform="matrix(1.00, 0.00, -0.00, -1.00, 161.6, 429.8)">g</text><text xml:space="preserve" font-family="ProximaNova-Bold,Proxima Nova" font-weight="bold" font-size="54.0" fill="#EE5B67" transform="matrix(1.00, 0.00, -0.00, -1.00, 193.2, 429.8)">h</text><text xml:space="preserve" font-family="ProximaNova-Bold,Proxima Nova" font-weight="bold" font-size="54.0" fill="#EE5B67" transform="matrix(1.00, 0.00, -0.00, -1.00, 224.5, 429.8)">t</text><text xml:space="preserve" font-family="ProximaNova-Bold,Proxima Nova" font-weight="bold" font-size="54.0" fill="#EE5B67" transform="matrix(1.00, 0.00, -0.00, -1.00, 242.8, 429.8)">n</text><text xml:space="preserve" font-family="ProximaNova-Bold,Proxima Nova" font-weight="bold" font-size="54.0" fill="#EE5B67" transform="matrix(1.00, 0.00, -0.00, -1.00, 274.0, 429.8)">i</text><text xml:space="preserve" font-family="ProximaNova-Bold,Proxima Nova" font-weight="bold" font-size="54.0" fill="#EE5B67" transform="matrix(1.00, 0.00, -0.00, -1.00, 287.7, 429.8)">n</text><text xml:space="preserve" font-family="ProximaNova-Bold,Proxima Nova" font-weight="bold" font-size="54.0" fill="#EE5B67" transform="matrix(1.00, 0.00, -0.00, -1.00, 318.9, 429.8)">g</text><text xml:space="preserve" font-family="ProximaNova-Bold,Proxima Nova" font-weight="bold" font-size="54.0" fill="#EE5B67" transform="matrix(1.00, 0.00, -0.00, -1.00, 350.5, 429.8)"> </text><text xml:space="preserve" font-family="ProximaNova-Bold,Proxima Nova" font-weight="bold" font-size="54.0" fill="#EE5B67" transform="matrix(1.00, 0.00, -0.00, -1.00, 364.4, 429.8)">T</text><text xml:space="preserve" font-family="ProximaNova-Bold,Proxima Nova" font-weight="bold" font-size="54.0" fill="#EE5B67" transform="matrix(1.00, 0.00, -0.00, -1.00, 391.6, 429.8)">a</text><text xml:space="preserve" font-family="ProximaNova-Bold,Proxima Nova" font-weight="bold" font-size="54.0" fill="#EE5B67" transform="matrix(1.00, 0.00, -0.00, -1.00, 421.0, 429.8)">l</text><text xml:space="preserve" font-family="ProximaNova-Bold,Proxima Nova" font-weight="bold" font-size="54.0" fill="#EE5B67" transform="matrix(1.00, 0.00, -0.00, -1.00, 434.6, 429.8)">k</text><text xml:space="preserve" font-family="ProximaNova-Bold,Proxima Nova" font-weight="bold" font-size="54.0" fill="#EE5B67" transform="matrix(1.00, 0.00, -0.00, -1.00, 463.6, 429.8)">s</text><text xml:space="preserve" font-family="ProximaNova-Bold,Proxima Nova" font-weight="bold" font-size="54.0" fill="#EE5B67" transform="matrix(1.00, 0.00, -0.00, -1.00, 489.3, 429.8)">:</text><text xml:space="preserve" font-family="ProximaNova-Bold,Proxima Nova" font-weight="bold" font-size="54.0" fill="#EE5B67" transform="matrix(1.00, 0.00, -0.00, -1.00, 502.6, 429.8)"> </text><text xml:space="preserve" font-family="ProximaNova-Bold,Proxima Nova" font-weight="bold" font-size="54.0" fill="#EE5B67" transform="matrix(1.00, 0.00, -0.00, -1.00, 516.5, 429.8)">H</text><text xml:space="preserve" font-family="ProximaNova-Bold,Proxima Nova" font-weight="bold" font-size="54.0" fill="#EE5B67" transform="matrix(1.00, 0.00, -0.00, -1.00, 556.0, 429.8)">i</text><text xml:space="preserve" font-family="ProximaNova-Bold,Proxima Nova" font-weight="bold" font-size="54.0" fill="#EE5B67" transform="matrix(1.00, 0.00, -0.00, -1.00, 569.6, 429.8)">g</text><text xml:space="preserve" font-family="ProximaNova-Bold,Proxima Nova" font-weight="bold" font-size="54.0" fill="#EE5B67" transform="matrix(1.00, 0.00, -0.00, -1.00, 601.2, 429.8)">h</text><text xml:space="preserve" font-family="ProximaNova-Bold,Proxima Nova" font-weight="bold" font-size="54.0" fill="#EE5B67" transform="matrix(1.00, 0.00, -0.00, -1.00, 632.5, 429.8)">s</text><text xml:space="preserve" font-family="ProximaNova-Bold,Proxima Nova" font-weight="bold" font-size="54.0" fill="#EE5B67" transform="matrix(1.00, 0.00, -0.00, -1.00, 658.3, 429.8)"> </text><text xml:space="preserve" font-family="ProximaNova-Bold,Proxima Nova" font-weight="bold" font-size="54.0" fill="#EE5B67" transform="matrix(1.00, 0.00, -0.00, -1.00, 672.2, 429.8)">a</text><text xml:space="preserve" font-family="ProximaNova-Bold,Proxima Nova" font-weight="bold" font-size="54.0" fill="#EE5B67" transform="matrix(1.00, 0.00, -0.00, -1.00, 701.5, 429.8)">n</text><text xml:space="preserve" font-family="ProximaNova-Bold,Proxima Nova" font-weight="bold" font-size="54.0" fill="#EE5B67" transform="matrix(1.00, 0.00, -0.00, -1.00, 732.8, 429.8)">d</text><text xml:space="preserve" font-family="ProximaNova-Bold,Proxima Nova" font-weight="bold" font-size="54.0" fill="#EE5B67" transform="matrix(1.00, 0.00, -0.00, -1.00, 764.4, 429.8)"> </text><text xml:space="preserve" font-family="ProximaNova-Bold,Proxima Nova" font-weight="bold" font-size="54.0" fill="#EE5B67" transform="matrix(1.00, 0.00, -0.00, -1.00, 778.3, 429.8)">L</text><text xml:space="preserve" font-family="ProximaNova-Bold,Proxima Nova" font-weight="bold" font-size="54.0" fill="#EE5B67" transform="matrix(1.00, 0.00, -0.00, -1.00, 805.5, 429.8)">o</text><text xml:space="preserve" font-family="ProximaNova-Bold,Proxima Nova" font-weight="bold" font-size="54.0" fill="#EE5B67" transform="matrix(1.00, 0.00, -0.00, -1.00, 836.5, 429.8)">w</text><text xml:space="preserve" font-family="ProximaNova-Bold,Proxima Nova" font-weight="bold" font-size="54.0" fill="#EE5B67" transform="matrix(1.00, 0.00, -0.00, -1.00, 878.1, 429.8)">s</text><text xml:space="preserve" font-family="ProximaNova-Bold,Proxima Nova" font-weight="bold" font-size="54.0" fill="#EE5B67" transform="matrix(1.00, 0.00, -0.00, -1.00, 903.9, 429.8)"> </text><text xml:space="preserve" font-family="ProximaNova-Bold,Proxima Nova" font-weight="bold" font-size="44.0" fill="#626262" transform="matrix(1.00, 0.00, -0.00, -1.00, 270.8, 332.7)">T</text><text xml:space="preserve" font-family="ProximaNova-Bold,Proxima Nova" font-weight="bold" font-size="44.0" fill="#626262" transform="matrix(1.00, 0.00, -0.00, -1.00, 293.4, 332.7)">u</text><text xml:space="preserve" font-family="ProximaNova-Bold,Proxima Nova" font-weight="bold" font-size="44.0" fill="#626262" transform="matrix(1.00, 0.00, -0.00, -1.00, 318.9, 332.7)">e</text><text xml:space="preserve" font-family="ProximaNova-Bold,Proxima Nova" font-weight="bold" font-size="44.0" fill="#626262" transform="matrix(1.00, 0.00, -0.00, -1.00, 343.2, 332.7)">s</text><text xml:space="preserve" font-family="ProximaNova-Bold,Proxima Nova" font-weight="bold" font-size="44.0" fill="#626262" transform="matrix(1.00, 0.00, -0.00, -1.00, 364.2, 332.7)">d</text><text xml:space="preserve" font-family="ProximaNova-Bold,Proxima Nova" font-weight="bold" font-size="44.0" fill="#626262" transform="matrix(1.00, 0.00, -0.00, -1.00, 390.0, 332.7)">a</text><text xml:space="preserve" font-family="ProximaNova-Bold,Proxima Nova" font-weight="bold" font-size="44.0" fill="#626262" transform="matrix(1.00, 0.00, -0.00, -1.00, 413.9, 332.7)">y</text><text xml:space="preserve" font-family="ProximaNova-Bold,Proxima Nova" font-weight="bold" font-size="44.0" fill="#626262" transform="matrix(1.00, 0.00, -0.00, -1.00, 434.1, 332.7)">,</text><text xml:space="preserve" font-family="ProximaNova-Bold,Proxima Nova" font-weight="bold" font-size="44.0" fill="#626262" transform="matrix(1.00, 0.00, -0.00, -1.00, 445.3, 332.7)"> </text><text xml:space="preserve" font-family="ProximaNova-Bold,Proxima Nova" font-weight="bold" font-size="44.0" fill="#626262" transform="matrix(1.00, 0.00, -0.00, -1.00, 456.6, 332.7)">A</text><text xml:space="preserve" font-family="ProximaNova-Bold,Proxima Nova" font-weight="bold" font-size="44.0" fill="#626262" transform="matrix(1.00, 0.00, -0.00, -1.00, 486.7, 332.7)">p</text><text xml:space="preserve" font-family="ProximaNova-Bold,Proxima Nova" font-weight="bold" font-size="44.0" fill="#626262" transform="matrix(1.00, 0.00, -0.00, -1.00, 512.3, 332.7)">r</text><text xml:space="preserve" font-family="ProximaNova-Bold,Proxima Nova" font-weight="bold" font-size="44.0" fill="#626262" transform="matrix(1.00, 0.00, -0.00, -1.00, 528.2, 332.7)">i</text><text xml:space="preserve" font-family="ProximaNova-Bold,Proxima Nova" font-weight="bold" font-size="44.0" fill="#626262" transform="matrix(1.00, 0.00, -0.00, -1.00, 539.3, 332.7)">l</text><text xml:space="preserve" font-family="ProximaNova-Bold,Proxima Nova" font-weight="bold" font-size="44.0" fill="#626262" transform="matrix(1.00, 0.00, -0.00, -1.00, 550.4, 332.7)"> </text><text xml:space="preserve" font-family="ProximaNova-Bold,Proxima Nova" font-weight="bold" font-size="44.0" fill="#626262" transform="matrix(1.00, 0.00, -0.00, -1.00, 561.7, 332.7)">2</text><text xml:space="preserve" font-family="ProximaNova-Bold,Proxima Nova" font-weight="bold" font-size="44.0" fill="#626262" transform="matrix(1.00, 0.00, -0.00, -1.00, 588.1, 332.7)">1</text><text xml:space="preserve" font-family="ProximaNova-Bold,Proxima Nova" font-weight="bold" font-size="44.0" fill="#626262" transform="matrix(1.00, 0.00, -0.00, -1.00, 606.2, 332.7)"> </text><text xml:space="preserve" font-family="ProximaNova-Bold,Proxima Nova" font-weight="bold" font-size="44.0" fill="#626262" transform="matrix(1.00, 0.00, -0.00, -1.00, 617.5, 332.7)">@</text><text xml:space="preserve" font-family="ProximaNova-Bold,Proxima Nova" font-weight="bold" font-size="44.0" fill="#626262" transform="matrix(1.00, 0.00, -0.00, -1.00, 652.0, 332.7)"> </text><text xml:space="preserve" font-family="ProximaNova-Bold,Proxima Nova" font-weight="bold" font-size="44.0" fill="#626262" transform="matrix(1.00, 0.00, -0.00, -1.00, 663.3, 332.7)">6</text><text xml:space="preserve" font-family="ProximaNova-Bold,Proxima Nova" font-weight="bold" font-size="44.0" fill="#626262" transform="matrix(1.00, 0.00, -0.00, -1.00, 690.0, 332.7)">p</text><text xml:space="preserve" font-family="ProximaNova-Bold,Proxima Nova" font-weight="bold" font-size="44.0" fill="#626262" transform="matrix(1.00, 0.00, -0.00, -1.00, 715.7, 332.7)">m</text><text xml:space="preserve" font-family="LucidaGrande-Bold,Lucida Grande" font-weight="bold" font-size="44.0" fill="#626262" transform="matrix(1.00, 0.00, -0.00, -1.00, 753.2, 332.7)"> </text><text xml:space="preserve" font-family="ProximaNova-Bold,Proxima Nova" font-weight="bold" font-size="44.0" fill="#626262" transform="matrix(1.00, 0.00, -0.00, -1.00, 354.8, 279.7)">D</text><text xml:space="preserve" font-family="ProximaNova-Bold,Proxima Nova" font-weight="bold" font-size="44.0" fill="#626262" transform="matrix(1.00, 0.00, -0.00, -1.00, 386.4, 279.7)">i</text><text xml:space="preserve" font-family="ProximaNova-Bold,Proxima Nova" font-weight="bold" font-size="44.0" fill="#626262" transform="matrix(1.00, 0.00, -0.00, -1.00, 397.5, 279.7)">g</text><text xml:space="preserve" font-family="ProximaNova-Bold,Proxima Nova" font-weight="bold" font-size="44.0" fill="#626262" transform="matrix(1.00, 0.00, -0.00, -1.00, 423.3, 279.7)">i</text><text xml:space="preserve" font-family="ProximaNova-Bold,Proxima Nova" font-weight="bold" font-size="44.0" fill="#626262" transform="matrix(1.00, 0.00, -0.00, -1.00, 434.4, 279.7)">t</text><text xml:space="preserve" font-family="ProximaNova-Bold,Proxima Nova" font-weight="bold" font-size="44.0" fill="#626262" transform="matrix(1.00, 0.00, -0.00, -1.00, 449.3, 279.7)">a</text><text xml:space="preserve" font-family="ProximaNova-Bold,Proxima Nova" font-weight="bold" font-size="44.0" fill="#626262" transform="matrix(1.00, 0.00, -0.00, -1.00, 473.1, 279.7)">s</text><text xml:space="preserve" font-family="ProximaNova-Bold,Proxima Nova" font-weight="bold" font-size="44.0" fill="#626262" transform="matrix(1.00, 0.00, -0.00, -1.00, 494.1, 279.7)"> </text><text xml:space="preserve" font-family="ProximaNova-Bold,Proxima Nova" font-weight="bold" font-size="44.0" fill="#626262" transform="matrix(1.00, 0.00, -0.00, -1.00, 505.4, 279.7)">C</text><text xml:space="preserve" font-family="ProximaNova-Bold,Proxima Nova" font-weight="bold" font-size="44.0" fill="#626262" transform="matrix(1.00, 0.00, -0.00, -1.00, 535.7, 279.7)">h</text><text xml:space="preserve" font-family="ProximaNova-Bold,Proxima Nova" font-weight="bold" font-size="44.0" fill="#626262" transform="matrix(1.00, 0.00, -0.00, -1.00, 561.2, 279.7)">i</text><text xml:space="preserve" font-family="ProximaNova-Bold,Proxima Nova" font-weight="bold" font-size="44.0" fill="#626262" transform="matrix(1.00, 0.00, -0.00, -1.00, 572.3, 279.7)">c</text><text xml:space="preserve" font-family="ProximaNova-Bold,Proxima Nova" font-weight="bold" font-size="44.0" fill="#626262" transform="matrix(1.00, 0.00, -0.00, -1.00, 594.3, 279.7)">a</text><text xml:space="preserve" font-family="ProximaNova-Bold,Proxima Nova" font-weight="bold" font-size="44.0" fill="#626262" transform="matrix(1.00, 0.00, -0.00, -1.00, 618.2, 279.7)">g</text><text xml:space="preserve" font-family="ProximaNova-Bold,Proxima Nova" font-weight="bold" font-size="44.0" fill="#626262" transform="matrix(1.00, 0.00, -0.00, -1.00, 643.9, 279.7)">o</text><text xml:space="preserve" font-family="LucidaGrande-Bold,Lucida Grande" font-weight="bold" font-size="38.0" fill="#626262" transform="matrix(1.00, 0.00, -0.00, -1.00, 669.2, 279.7)"> </text><text xml:space="preserve" font-family="ProximaNova-Bold,Proxima Nova" font-weight="bold" font-size="42.0" fill="#24A9B4" transform="matrix(1.00, 0.00, -0.00, -1.00, 125.9, 141.3)">S</text><text xml:space="preserve" font-family="ProximaNova-Bold,Proxima Nova" font-weight="bold" font-size="42.0" fill="#24A9B4" transform="matrix(1.00, 0.00, -0.00, -1.00, 151.1, 141.3)">u</text><text xml:space="preserve" font-family="ProximaNova-Bold,Proxima Nova" font-weight="bold" font-size="42.0" fill="#24A9B4" transform="matrix(1.00, 0.00, -0.00, -1.00, 175.4, 141.3)">b</text><text xml:space="preserve" font-family="ProximaNova-Bold,Proxima Nova" font-weight="bold" font-size="42.0" fill="#24A9B4" transform="matrix(1.00, 0.00, -0.00, -1.00, 200.0, 141.3)">m</text><text xml:space="preserve" font-family="ProximaNova-Bold,Proxima Nova" font-weight="bold" font-size="42.0" fill="#24A9B4" transform="matrix(1.00, 0.00, -0.00, -1.00, 235.8, 141.3)">i</text><text xml:space="preserve" font-family="ProximaNova-Bold,Proxima Nova" font-weight="bold" font-size="42.0" fill="#24A9B4" transform="matrix(1.00, 0.00, -0.00, -1.00, 246.5, 141.3)">t</text><text xml:space="preserve" font-family="ProximaNova-Bold,Proxima Nova" font-weight="bold" font-size="42.0" fill="#24A9B4" transform="matrix(1.00, 0.00, -0.00, -1.00, 260.7, 141.3)"> </text><text xml:space="preserve" font-family="ProximaNova-Bold,Proxima Nova" font-weight="bold" font-size="42.0" fill="#24A9B4" transform="matrix(1.00, 0.00, -0.00, -1.00, 271.5, 141.3)">a</text><text xml:space="preserve" font-family="ProximaNova-Bold,Proxima Nova" font-weight="bold" font-size="42.0" fill="#24A9B4" transform="matrix(1.00, 0.00, -0.00, -1.00, 294.3, 141.3)"> </text><text xml:space="preserve" font-family="ProximaNova-Bold,Proxima Nova" font-weight="bold" font-size="42.0" fill="#24A9B4" transform="matrix(1.00, 0.00, -0.00, -1.00, 305.1, 141.3)">l</text><text xml:space="preserve" font-family="ProximaNova-Bold,Proxima Nova" font-weight="bold" font-size="42.0" fill="#24A9B4" transform="matrix(1.00, 0.00, -0.00, -1.00, 315.7, 141.3)">i</text><text xml:space="preserve" font-family="ProximaNova-Bold,Proxima Nova" font-weight="bold" font-size="42.0" fill="#24A9B4" transform="matrix(1.00, 0.00, -0.00, -1.00, 326.3, 141.3)">g</text><text xml:space="preserve" font-family="ProximaNova-Bold,Proxima Nova" font-weight="bold" font-size="42.0" fill="#24A9B4" transform="matrix(1.00, 0.00, -0.00, -1.00, 350.9, 141.3)">h</text><text xml:space="preserve" font-family="ProximaNova-Bold,Proxima Nova" font-weight="bold" font-size="42.0" fill="#24A9B4" transform="matrix(1.00, 0.00, -0.00, -1.00, 375.2, 141.3)">t</text><text xml:space="preserve" font-family="ProximaNova-Bold,Proxima Nova" font-weight="bold" font-size="42.0" fill="#24A9B4" transform="matrix(1.00, 0.00, -0.00, -1.00, 389.4, 141.3)">n</text><text xml:space="preserve" font-family="ProximaNova-Bold,Proxima Nova" font-weight="bold" font-size="42.0" fill="#24A9B4" transform="matrix(1.00, 0.00, -0.00, -1.00, 413.8, 141.3)">i</text><text xml:space="preserve" font-family="ProximaNova-Bold,Proxima Nova" font-weight="bold" font-size="42.0" fill="#24A9B4" transform="matrix(1.00, 0.00, -0.00, -1.00, 424.4, 141.3)">n</text><text xml:space="preserve" font-family="ProximaNova-Bold,Proxima Nova" font-weight="bold" font-size="42.0" fill="#24A9B4" transform="matrix(1.00, 0.00, -0.00, -1.00, 448.7, 141.3)">g</text><text xml:space="preserve" font-family="ProximaNova-Bold,Proxima Nova" font-weight="bold" font-size="42.0" fill="#24A9B4" transform="matrix(1.00, 0.00, -0.00, -1.00, 473.3, 141.3)"> </text><text xml:space="preserve" font-family="ProximaNova-Bold,Proxima Nova" font-weight="bold" font-size="42.0" fill="#24A9B4" transform="matrix(1.00, 0.00, -0.00, -1.00, 484.1, 141.3)">t</text><text xml:space="preserve" font-family="ProximaNova-Bold,Proxima Nova" font-weight="bold" font-size="42.0" fill="#24A9B4" transform="matrix(1.00, 0.00, -0.00, -1.00, 498.3, 141.3)">a</text><text xml:space="preserve" font-family="ProximaNova-Bold,Proxima Nova" font-weight="bold" font-size="42.0" fill="#24A9B4" transform="matrix(1.00, 0.00, -0.00, -1.00, 521.1, 141.3)">l</text><text xml:space="preserve" font-family="ProximaNova-Bold,Proxima Nova" font-weight="bold" font-size="42.0" fill="#24A9B4" transform="matrix(1.00, 0.00, -0.00, -1.00, 531.7, 141.3)">k</text><text xml:space="preserve" font-family="ProximaNova-Bold,Proxima Nova" font-weight="bold" font-size="42.0" fill="#24A9B4" transform="matrix(1.00, 0.00, -0.00, -1.00, 554.2, 141.3)"> </text><text xml:space="preserve" font-family="ProximaNova-Bold,Proxima Nova" font-weight="bold" font-size="42.0" fill="#24A9B4" transform="matrix(1.00, 0.00, -0.00, -1.00, 565.0, 141.3)">a</text><text xml:space="preserve" font-family="ProximaNova-Bold,Proxima Nova" font-weight="bold" font-size="42.0" fill="#24A9B4" transform="matrix(1.00, 0.00, -0.00, -1.00, 587.8, 141.3)">t</text><text xml:space="preserve" font-family="ProximaNova-Bold,Proxima Nova" font-weight="bold" font-size="42.0" fill="#24A9B4" transform="matrix(1.00, 0.00, -0.00, -1.00, 602.0, 141.3)"> </text><text xml:space="preserve" font-family="ProximaNova-Bold,Proxima Nova" font-weight="bold" font-size="42.0" fill="#24A9B4" transform="matrix(1.00, 0.00, -0.00, -1.00, 612.8, 141.3)">o</text><text xml:space="preserve" font-family="ProximaNova-Bold,Proxima Nova" font-weight="bold" font-size="42.0" fill="#24A9B4" transform="matrix(1.00, 0.00, -0.00, -1.00, 636.9, 141.3)">u</text><text xml:space="preserve" font-family="ProximaNova-Bold,Proxima Nova" font-weight="bold" font-size="42.0" fill="#24A9B4" transform="matrix(1.00, 0.00, -0.00, -1.00, 661.3, 141.3)">r</text><text xml:space="preserve" font-family="ProximaNova-Bold,Proxima Nova" font-weight="bold" font-size="42.0" fill="#24A9B4" transform="matrix(1.00, 0.00, -0.00, -1.00, 676.4, 141.3)"> </text><text xml:space="preserve" font-family="ProximaNova-Bold,Proxima Nova" font-weight="bold" font-size="42.0" fill="#24A9B4" transform="matrix(1.00, 0.00, -0.00, -1.00, 687.2, 141.3)">n</text><text xml:space="preserve" font-family="ProximaNova-Bold,Proxima Nova" font-weight="bold" font-size="42.0" fill="#24A9B4" transform="matrix(1.00, 0.00, -0.00, -1.00, 711.5, 141.3)">e</text><text xml:space="preserve" font-family="ProximaNova-Bold,Proxima Nova" font-weight="bold" font-size="42.0" fill="#24A9B4" transform="matrix(1.00, 0.00, -0.00, -1.00, 734.7, 141.3)">x</text><text xml:space="preserve" font-family="ProximaNova-Bold,Proxima Nova" font-weight="bold" font-size="42.0" fill="#24A9B4" transform="matrix(1.00, 0.00, -0.00, -1.00, 755.9, 141.3)">t</text><text xml:space="preserve" font-family="ProximaNova-Bold,Proxima Nova" font-weight="bold" font-size="42.0" fill="#24A9B4" transform="matrix(1.00, 0.00, -0.00, -1.00, 770.1, 141.3)"> </text><text xml:space="preserve" font-family="ProximaNova-Bold,Proxima Nova" font-weight="bold" font-size="42.0" fill="#24A9B4" transform="matrix(1.00, 0.00, -0.00, -1.00, 780.9, 141.3)">e</text><text xml:space="preserve" font-family="ProximaNova-Bold,Proxima Nova" font-weight="bold" font-size="42.0" fill="#24A9B4" transform="matrix(1.00, 0.00, -0.00, -1.00, 804.1, 141.3)">v</text><text xml:space="preserve" font-family="ProximaNova-Bold,Proxima Nova" font-weight="bold" font-size="42.0" fill="#24A9B4" transform="matrix(1.00, 0.00, -0.00, -1.00, 825.7, 141.3)">e</text><text xml:space="preserve" font-family="ProximaNova-Bold,Proxima Nova" font-weight="bold" font-size="42.0" fill="#24A9B4" transform="matrix(1.00, 0.00, -0.00, -1.00, 848.9, 141.3)">n</text><text xml:space="preserve" font-family="ProximaNova-Bold,Proxima Nova" font-weight="bold" font-size="42.0" fill="#24A9B4" transform="matrix(1.00, 0.00, -0.00, -1.00, 873.2, 141.3)">t</text><text xml:space="preserve" font-family="ProximaNova-Bold,Proxima Nova" font-weight="bold" font-size="42.0" fill="#24A9B4" transform="matrix(1.00, 0.00, -0.00, -1.00, 887.4, 141.3)">!</text><text xml:space="preserve" font-family="LucidaGrande-Bold,Lucida Grande" font-weight="bold" font-size="40.0" fill="#24A9B4" transform="matrix(1.00, 0.00, -0.00, -1.00, 898.1, 141.3)"> </text><text xml:space="preserve" font-family="ProximaNova-Bold,Proxima Nova" font-weight="bold" font-size="40.0" fill="#626262" transform="matrix(1.00, 0.00, -0.00, -1.00, 337.7, 92.9)">h</text><text xml:space="preserve" font-family="ProximaNova-Bold,Proxima Nova" font-weight="bold" font-size="40.0" fill="#626262" transform="matrix(1.00, 0.00, -0.00, -1.00, 360.9, 92.9)">t</text><text xml:space="preserve" font-family="ProximaNova-Bold,Proxima Nova" font-weight="bold" font-size="40.0" fill="#626262" transform="matrix(1.00, 0.00, -0.00, -1.00, 374.5, 92.9)">t</text><text xml:space="preserve" font-family="ProximaNova-Bold,Proxima Nova" font-weight="bold" font-size="40.0" fill="#626262" transform="matrix(1.00, 0.00, -0.00, -1.00, 388.0, 92.9)">p</text><text xml:space="preserve" font-family="ProximaNova-Bold,Proxima Nova" font-weight="bold" font-size="40.0" fill="#626262" transform="matrix(1.00, 0.00, -0.00, -1.00, 411.3, 92.9)">:</text><text xml:space="preserve" font-family="ProximaNova-Bold,Proxima Nova" font-weight="bold" font-size="40.0" fill="#626262" transform="matrix(1.00, 0.00, -0.00, -1.00, 421.1, 92.9)">/</text><text xml:space="preserve" font-family="ProximaNova-Bold,Proxima Nova" font-weight="bold" font-size="40.0" fill="#626262" transform="matrix(1.00, 0.00, -0.00, -1.00, 434.3, 92.9)">/</text><text xml:space="preserve" font-family="ProximaNova-Bold,Proxima Nova" font-weight="bold" font-size="40.0" fill="#626262" transform="matrix(1.00, 0.00, -0.00, -1.00, 447.5, 92.9)">b</text><text xml:space="preserve" font-family="ProximaNova-Bold,Proxima Nova" font-weight="bold" font-size="40.0" fill="#626262" transform="matrix(1.00, 0.00, -0.00, -1.00, 470.9, 92.9)">i</text><text xml:space="preserve" font-family="ProximaNova-Bold,Proxima Nova" font-weight="bold" font-size="40.0" fill="#626262" transform="matrix(1.00, 0.00, -0.00, -1.00, 481.0, 92.9)">t</text><text xml:space="preserve" font-family="ProximaNova-Bold,Proxima Nova" font-weight="bold" font-size="40.0" fill="#626262" transform="matrix(1.00, 0.00, -0.00, -1.00, 494.5, 92.9)">.</text><text xml:space="preserve" font-family="ProximaNova-Bold,Proxima Nova" font-weight="bold" font-size="40.0" fill="#626262" transform="matrix(1.00, 0.00, -0.00, -1.00, 504.8, 92.9)">l</text><text xml:space="preserve" font-family="ProximaNova-Bold,Proxima Nova" font-weight="bold" font-size="40.0" fill="#626262" transform="matrix(1.00, 0.00, -0.00, -1.00, 514.9, 92.9)">y</text><text xml:space="preserve" font-family="ProximaNova-Bold,Proxima Nova" font-weight="bold" font-size="40.0" fill="#626262" transform="matrix(1.00, 0.00, -0.00, -1.00, 535.5, 92.9)">/</text><text xml:space="preserve" font-family="ProximaNova-Bold,Proxima Nova" font-weight="bold" font-size="40.0" fill="#626262" transform="matrix(1.00, 0.00, -0.00, -1.00, 548.6, 92.9)">1</text><text xml:space="preserve" font-family="ProximaNova-Bold,Proxima Nova" font-weight="bold" font-size="40.0" fill="#626262" transform="matrix(1.00, 0.00, -0.00, -1.00, 565.1, 92.9)">C</text><text xml:space="preserve" font-family="ProximaNova-Bold,Proxima Nova" font-weight="bold" font-size="40.0" fill="#626262" transform="matrix(1.00, 0.00, -0.00, -1.00, 592.5, 92.9)">c</text><text xml:space="preserve" font-family="ProximaNova-Bold,Proxima Nova" font-weight="bold" font-size="40.0" fill="#626262" transform="matrix(1.00, 0.00, -0.00, -1.00, 612.5, 92.9)">I</text><text xml:space="preserve" font-family="ProximaNova-Bold,Proxima Nova" font-weight="bold" font-size="40.0" fill="#626262" transform="matrix(1.00, 0.00, -0.00, -1.00, 623.5, 92.9)">r</text><text xml:space="preserve" font-family="ProximaNova-Bold,Proxima Nova" font-weight="bold" font-size="40.0" fill="#626262" transform="matrix(1.00, 0.00, -0.00, -1.00, 637.9, 92.9)">g</text><text xml:space="preserve" font-family="ProximaNova-Bold,Proxima Nova" font-weight="bold" font-size="40.0" fill="#626262" transform="matrix(1.00, 0.00, -0.00, -1.00, 661.3, 92.9)">P</text><image xlink:href="../../183FCE1A-BE42-4EDD-A793-E62A30BD3FFE/assets/22BD1E98C4B588D96BDF6514DB8E543A.png" width="2468.00" height="226.00" transform="matrix(0.35, 0.00, -0.00, -0.35, 75.8, 687.9)"></image><image xlink:href="../../183FCE1A-BE42-4EDD-A793-E62A30BD3FFE/assets/DF93223D19A7DC8D3510E3E8AFE60295.png" width="2098.00" height="218.00" transform="matrix(0.34, 0.00, -0.00, -0.34, 144.8, 606.9)"></image></g></svg>