<?xml version="1.0" encoding="UTF-8" standalone="no"?><svg xmlns="http://www.w3.org/2000/svg" xmlns:xlink="http://www.w3.org/1999/xlink" clip-rule="evenodd" stroke-miterlimit="10" viewBox="0 0 1024 768"><desc>SVG generated by Keynote</desc><defs></defs><g transform="matrix(1.00, 0.00, -0.00, -1.00, 0.0, 768.0)"><path d="M 0.0 768.0 L 1024.0 768.0 L 1024.0 0.0 L 0.0 0.0 Z M 0.0 768.0 " fill="#FEFFFF"></path><text xml:space="preserve" font-family="ProximaNova-Bold,Proxima Nova" font-weight="bold" font-size="38.0" fill="#EE5B67" transform="matrix(1.00, 0.00, -0.00, -1.00, 598.1, 643.0)">"</text><text xml:space="preserve" font-family="ProximaNova-Bold,Proxima Nova" font-weight="bold" font-size="38.0" fill="#EE5B67" transform="matrix(1.00, 0.00, -0.00, -1.00, 613.3, 643.0)">G</text><text xml:space="preserve" font-family="ProximaNova-Bold,Proxima Nova" font-weight="bold" font-size="38.0" fill="#EE5B67" transform="matrix(1.00, 0.00, -0.00, -1.00, 640.6, 643.0)">D</text><text xml:space="preserve" font-family="ProximaNova-Bold,Proxima Nova" font-weight="bold" font-size="38.0" fill="#EE5B67" transform="matrix(1.00, 0.00, -0.00, -1.00, 667.9, 643.0)">I</text><text xml:space="preserve" font-family="ProximaNova-Bold,Proxima Nova" font-weight="bold" font-size="38.0" fill="#EE5B67" transform="matrix(1.00, 0.00, -0.00, -1.00, 678.3, 643.0)"> </text><text xml:space="preserve" font-family="ProximaNova-Bold,Proxima Nova" font-weight="bold" font-size="38.0" fill="#EE5B67" transform="matrix(1.00, 0.00, -0.00, -1.00, 688.1, 643.0)">h</text><text xml:space="preserve" font-family="ProximaNova-Bold,Proxima Nova" font-weight="bold" font-size="38.0" fill="#EE5B67" transform="matrix(1.00, 0.00, -0.00, -1.00, 710.2, 643.0)">a</text><text xml:space="preserve" font-family="ProximaNova-Bold,Proxima Nova" font-weight="bold" font-size="38.0" fill="#EE5B67" transform="matrix(1.00, 0.00, -0.00, -1.00, 730.8, 643.0)">s</text><text xml:space="preserve" font-family="ProximaNova-Bold,Proxima Nova" font-weight="bold" font-size="38.0" fill="#EE5B67" transform="matrix(1.00, 0.00, -0.00, -1.00, 748.9, 643.0)"> </text><text xml:space="preserve" font-family="ProximaNova-Bold,Proxima Nova" font-weight="bold" font-size="38.0" fill="#EE5B67" transform="matrix(1.00, 0.00, -0.00, -1.00, 758.7, 643.0)">b</text><text xml:space="preserve" font-family="ProximaNova-Bold,Proxima Nova" font-weight="bold" font-size="38.0" fill="#EE5B67" transform="matrix(1.00, 0.00, -0.00, -1.00, 780.9, 643.0)">e</text><text xml:space="preserve" font-family="ProximaNova-Bold,Proxima Nova" font-weight="bold" font-size="38.0" fill="#EE5B67" transform="matrix(1.00, 0.00, -0.00, -1.00, 802.0, 643.0)">e</text><text xml:space="preserve" font-family="ProximaNova-Bold,Proxima Nova" font-weight="bold" font-size="38.0" fill="#EE5B67" transform="matrix(1.00, 0.00, -0.00, -1.00, 823.0, 643.0)">n</text><text xml:space="preserve" font-family="ProximaNova-Bold,Proxima Nova" font-weight="bold" font-size="38.0" fill="#EE5B67" transform="matrix(1.00, 0.00, -0.00, -1.00, 845.0, 643.0)"> </text><text xml:space="preserve" font-family="ProximaNova-Bold,Proxima Nova" font-weight="bold" font-size="38.0" fill="#EE5B67" transform="matrix(1.00, 0.00, -0.00, -1.00, 854.7, 643.0)">a</text><text xml:space="preserve" font-family="ProximaNova-Bold,Proxima Nova" font-weight="bold" font-size="38.0" fill="#EE5B67" transform="matrix(1.00, 0.00, -0.00, -1.00, 875.4, 643.0)">n</text><text xml:space="preserve" font-family="ProximaNova-Bold,Proxima Nova" font-weight="bold" font-size="38.0" fill="#EE5B67" transform="matrix(1.00, 0.00, -0.00, -1.00, 897.4, 643.0)"> </text><text xml:space="preserve" font-family="ProximaNova-Bold,Proxima Nova" font-weight="bold" font-size="38.0" fill="#EE5B67" transform="matrix(1.00, 0.00, -0.00, -1.00, 550.4, 597.0)">i</text><text xml:space="preserve" font-family="ProximaNova-Bold,Proxima Nova" font-weight="bold" font-size="38.0" fill="#EE5B67" transform="matrix(1.00, 0.00, -0.00, -1.00, 560.0, 597.0)">n</text><text xml:space="preserve" font-family="ProximaNova-Bold,Proxima Nova" font-weight="bold" font-size="38.0" fill="#EE5B67" transform="matrix(1.00, 0.00, -0.00, -1.00, 582.0, 597.0)">v</text><text xml:space="preserve" font-family="ProximaNova-Bold,Proxima Nova" font-weight="bold" font-size="38.0" fill="#EE5B67" transform="matrix(1.00, 0.00, -0.00, -1.00, 601.5, 597.0)">a</text><text xml:space="preserve" font-family="ProximaNova-Bold,Proxima Nova" font-weight="bold" font-size="38.0" fill="#EE5B67" transform="matrix(1.00, 0.00, -0.00, -1.00, 622.1, 597.0)">l</text><text xml:space="preserve" font-family="ProximaNova-Bold,Proxima Nova" font-weight="bold" font-size="38.0" fill="#EE5B67" transform="matrix(1.00, 0.00, -0.00, -1.00, 631.8, 597.0)">u</text><text xml:space="preserve" font-family="ProximaNova-Bold,Proxima Nova" font-weight="bold" font-size="38.0" fill="#EE5B67" transform="matrix(1.00, 0.00, -0.00, -1.00, 653.8, 597.0)">a</text><text xml:space="preserve" font-family="ProximaNova-Bold,Proxima Nova" font-weight="bold" font-size="38.0" fill="#EE5B67" transform="matrix(1.00, 0.00, -0.00, -1.00, 674.4, 597.0)">b</text><text xml:space="preserve" font-family="ProximaNova-Bold,Proxima Nova" font-weight="bold" font-size="38.0" fill="#EE5B67" transform="matrix(1.00, 0.00, -0.00, -1.00, 696.7, 597.0)">l</text><text xml:space="preserve" font-family="ProximaNova-Bold,Proxima Nova" font-weight="bold" font-size="38.0" fill="#EE5B67" transform="matrix(1.00, 0.00, -0.00, -1.00, 706.3, 597.0)">e</text><text xml:space="preserve" font-family="ProximaNova-Bold,Proxima Nova" font-weight="bold" font-size="38.0" fill="#EE5B67" transform="matrix(1.00, 0.00, -0.00, -1.00, 727.3, 597.0)"> </text><text xml:space="preserve" font-family="ProximaNova-Bold,Proxima Nova" font-weight="bold" font-size="38.0" fill="#EE5B67" transform="matrix(1.00, 0.00, -0.00, -1.00, 737.1, 597.0)">r</text><text xml:space="preserve" font-family="ProximaNova-Bold,Proxima Nova" font-weight="bold" font-size="38.0" fill="#EE5B67" transform="matrix(1.00, 0.00, -0.00, -1.00, 750.7, 597.0)">e</text><text xml:space="preserve" font-family="ProximaNova-Bold,Proxima Nova" font-weight="bold" font-size="38.0" fill="#EE5B67" transform="matrix(1.00, 0.00, -0.00, -1.00, 771.7, 597.0)">s</text><text xml:space="preserve" font-family="ProximaNova-Bold,Proxima Nova" font-weight="bold" font-size="38.0" fill="#EE5B67" transform="matrix(1.00, 0.00, -0.00, -1.00, 789.9, 597.0)">o</text><text xml:space="preserve" font-family="ProximaNova-Bold,Proxima Nova" font-weight="bold" font-size="38.0" fill="#EE5B67" transform="matrix(1.00, 0.00, -0.00, -1.00, 811.7, 597.0)">u</text><text xml:space="preserve" font-family="ProximaNova-Bold,Proxima Nova" font-weight="bold" font-size="38.0" fill="#EE5B67" transform="matrix(1.00, 0.00, -0.00, -1.00, 833.7, 597.0)">r</text><text xml:space="preserve" font-family="ProximaNova-Bold,Proxima Nova" font-weight="bold" font-size="38.0" fill="#EE5B67" transform="matrix(1.00, 0.00, -0.00, -1.00, 847.4, 597.0)">c</text><text xml:space="preserve" font-family="ProximaNova-Bold,Proxima Nova" font-weight="bold" font-size="38.0" fill="#EE5B67" transform="matrix(1.00, 0.00, -0.00, -1.00, 866.4, 597.0)">e</text><text xml:space="preserve" font-family="ProximaNova-Bold,Proxima Nova" font-weight="bold" font-size="38.0" fill="#EE5B67" transform="matrix(1.00, 0.00, -0.00, -1.00, 887.4, 597.0)"> </text><text xml:space="preserve" font-family="ProximaNova-Bold,Proxima Nova" font-weight="bold" font-size="38.0" fill="#EE5B67" transform="matrix(1.00, 0.00, -0.00, -1.00, 897.1, 597.0)">f</text><text xml:space="preserve" font-family="ProximaNova-Bold,Proxima Nova" font-weight="bold" font-size="38.0" fill="#EE5B67" transform="matrix(1.00, 0.00, -0.00, -1.00, 909.6, 597.0)">o</text><text xml:space="preserve" font-family="ProximaNova-Bold,Proxima Nova" font-weight="bold" font-size="38.0" fill="#EE5B67" transform="matrix(1.00, 0.00, -0.00, -1.00, 931.4, 597.0)">r</text><text xml:space="preserve" font-family="ProximaNova-Bold,Proxima Nova" font-weight="bold" font-size="38.0" fill="#EE5B67" transform="matrix(1.00, 0.00, -0.00, -1.00, 945.1, 597.0)"> </text><text xml:space="preserve" font-family="ProximaNova-Bold,Proxima Nova" font-weight="bold" font-size="38.0" fill="#EE5B67" transform="matrix(1.00, 0.00, -0.00, -1.00, 577.2, 551.0)">m</text><text xml:space="preserve" font-family="ProximaNova-Bold,Proxima Nova" font-weight="bold" font-size="38.0" fill="#EE5B67" transform="matrix(1.00, 0.00, -0.00, -1.00, 609.6, 551.0)">e</text><text xml:space="preserve" font-family="ProximaNova-Bold,Proxima Nova" font-weight="bold" font-size="38.0" fill="#EE5B67" transform="matrix(1.00, 0.00, -0.00, -1.00, 630.4, 551.0)">.</text><text xml:space="preserve" font-family="ProximaNova-Bold,Proxima Nova" font-weight="bold" font-size="38.0" fill="#EE5B67" transform="matrix(1.00, 0.00, -0.00, -1.00, 640.2, 551.0)"> </text><text xml:space="preserve" font-family="ProximaNova-Bold,Proxima Nova" font-weight="bold" font-size="38.0" fill="#EE5B67" transform="matrix(1.00, 0.00, -0.00, -1.00, 650.0, 551.0)">T</text><text xml:space="preserve" font-family="ProximaNova-Bold,Proxima Nova" font-weight="bold" font-size="38.0" fill="#EE5B67" transform="matrix(1.00, 0.00, -0.00, -1.00, 672.1, 551.0)">h</text><text xml:space="preserve" font-family="ProximaNova-Bold,Proxima Nova" font-weight="bold" font-size="38.0" fill="#EE5B67" transform="matrix(1.00, 0.00, -0.00, -1.00, 694.1, 551.0)">e</text><text xml:space="preserve" font-family="ProximaNova-Bold,Proxima Nova" font-weight="bold" font-size="38.0" fill="#EE5B67" transform="matrix(1.00, 0.00, -0.00, -1.00, 715.1, 551.0)"> </text><text xml:space="preserve" font-family="ProximaNova-Bold,Proxima Nova" font-weight="bold" font-size="38.0" fill="#EE5B67" transform="matrix(1.00, 0.00, -0.00, -1.00, 724.9, 551.0)">i</text><text xml:space="preserve" font-family="ProximaNova-Bold,Proxima Nova" font-weight="bold" font-size="38.0" fill="#EE5B67" transform="matrix(1.00, 0.00, -0.00, -1.00, 734.5, 551.0)">n</text><text xml:space="preserve" font-family="ProximaNova-Bold,Proxima Nova" font-weight="bold" font-size="38.0" fill="#EE5B67" transform="matrix(1.00, 0.00, -0.00, -1.00, 756.5, 551.0)">s</text><text xml:space="preserve" font-family="ProximaNova-Bold,Proxima Nova" font-weight="bold" font-size="38.0" fill="#EE5B67" transform="matrix(1.00, 0.00, -0.00, -1.00, 774.7, 551.0)">t</text><text xml:space="preserve" font-family="ProximaNova-Bold,Proxima Nova" font-weight="bold" font-size="38.0" fill="#EE5B67" transform="matrix(1.00, 0.00, -0.00, -1.00, 787.5, 551.0)">r</text><text xml:space="preserve" font-family="ProximaNova-Bold,Proxima Nova" font-weight="bold" font-size="38.0" fill="#EE5B67" transform="matrix(1.00, 0.00, -0.00, -1.00, 801.2, 551.0)">u</text><text xml:space="preserve" font-family="ProximaNova-Bold,Proxima Nova" font-weight="bold" font-size="38.0" fill="#EE5B67" transform="matrix(1.00, 0.00, -0.00, -1.00, 823.2, 551.0)">c</text><text xml:space="preserve" font-family="ProximaNova-Bold,Proxima Nova" font-weight="bold" font-size="38.0" fill="#EE5B67" transform="matrix(1.00, 0.00, -0.00, -1.00, 842.1, 551.0)">t</text><text xml:space="preserve" font-family="ProximaNova-Bold,Proxima Nova" font-weight="bold" font-size="38.0" fill="#EE5B67" transform="matrix(1.00, 0.00, -0.00, -1.00, 855.0, 551.0)">o</text><text xml:space="preserve" font-family="ProximaNova-Bold,Proxima Nova" font-weight="bold" font-size="38.0" fill="#EE5B67" transform="matrix(1.00, 0.00, -0.00, -1.00, 876.8, 551.0)">r</text><text xml:space="preserve" font-family="ProximaNova-Bold,Proxima Nova" font-weight="bold" font-size="38.0" fill="#EE5B67" transform="matrix(1.00, 0.00, -0.00, -1.00, 890.5, 551.0)">s</text><text xml:space="preserve" font-family="ProximaNova-Bold,Proxima Nova" font-weight="bold" font-size="38.0" fill="#EE5B67" transform="matrix(1.00, 0.00, -0.00, -1.00, 908.6, 551.0)">,</text><text xml:space="preserve" font-family="ProximaNova-Bold,Proxima Nova" font-weight="bold" font-size="38.0" fill="#EE5B67" transform="matrix(1.00, 0.00, -0.00, -1.00, 918.3, 551.0)"> </text><text xml:space="preserve" font-family="ProximaNova-Bold,Proxima Nova" font-weight="bold" font-size="38.0" fill="#EE5B67" transform="matrix(1.00, 0.00, -0.00, -1.00, 614.8, 505.0)">v</text><text xml:space="preserve" font-family="ProximaNova-Bold,Proxima Nova" font-weight="bold" font-size="38.0" fill="#EE5B67" transform="matrix(1.00, 0.00, -0.00, -1.00, 634.2, 505.0)">o</text><text xml:space="preserve" font-family="ProximaNova-Bold,Proxima Nova" font-weight="bold" font-size="38.0" fill="#EE5B67" transform="matrix(1.00, 0.00, -0.00, -1.00, 656.1, 505.0)">l</text><text xml:space="preserve" font-family="ProximaNova-Bold,Proxima Nova" font-weight="bold" font-size="38.0" fill="#EE5B67" transform="matrix(1.00, 0.00, -0.00, -1.00, 665.7, 505.0)">u</text><text xml:space="preserve" font-family="ProximaNova-Bold,Proxima Nova" font-weight="bold" font-size="38.0" fill="#EE5B67" transform="matrix(1.00, 0.00, -0.00, -1.00, 687.7, 505.0)">n</text><text xml:space="preserve" font-family="ProximaNova-Bold,Proxima Nova" font-weight="bold" font-size="38.0" fill="#EE5B67" transform="matrix(1.00, 0.00, -0.00, -1.00, 709.7, 505.0)">t</text><text xml:space="preserve" font-family="ProximaNova-Bold,Proxima Nova" font-weight="bold" font-size="38.0" fill="#EE5B67" transform="matrix(1.00, 0.00, -0.00, -1.00, 722.6, 505.0)">e</text><text xml:space="preserve" font-family="ProximaNova-Bold,Proxima Nova" font-weight="bold" font-size="38.0" fill="#EE5B67" transform="matrix(1.00, 0.00, -0.00, -1.00, 743.6, 505.0)">e</text><text xml:space="preserve" font-family="ProximaNova-Bold,Proxima Nova" font-weight="bold" font-size="38.0" fill="#EE5B67" transform="matrix(1.00, 0.00, -0.00, -1.00, 764.6, 505.0)">r</text><text xml:space="preserve" font-family="ProximaNova-Bold,Proxima Nova" font-weight="bold" font-size="38.0" fill="#EE5B67" transform="matrix(1.00, 0.00, -0.00, -1.00, 778.3, 505.0)">s</text><text xml:space="preserve" font-family="ProximaNova-Bold,Proxima Nova" font-weight="bold" font-size="38.0" fill="#EE5B67" transform="matrix(1.00, 0.00, -0.00, -1.00, 796.4, 505.0)">,</text><text xml:space="preserve" font-family="ProximaNova-Bold,Proxima Nova" font-weight="bold" font-size="38.0" fill="#EE5B67" transform="matrix(1.00, 0.00, -0.00, -1.00, 806.1, 505.0)"> </text><text xml:space="preserve" font-family="ProximaNova-Bold,Proxima Nova" font-weight="bold" font-size="38.0" fill="#EE5B67" transform="matrix(1.00, 0.00, -0.00, -1.00, 815.8, 505.0)">a</text><text xml:space="preserve" font-family="ProximaNova-Bold,Proxima Nova" font-weight="bold" font-size="38.0" fill="#EE5B67" transform="matrix(1.00, 0.00, -0.00, -1.00, 836.5, 505.0)">n</text><text xml:space="preserve" font-family="ProximaNova-Bold,Proxima Nova" font-weight="bold" font-size="38.0" fill="#EE5B67" transform="matrix(1.00, 0.00, -0.00, -1.00, 858.5, 505.0)">d</text><text xml:space="preserve" font-family="ProximaNova-Bold,Proxima Nova" font-weight="bold" font-size="38.0" fill="#EE5B67" transform="matrix(1.00, 0.00, -0.00, -1.00, 880.8, 505.0)"> </text><text xml:space="preserve" font-family="ProximaNova-Bold,Proxima Nova" font-weight="bold" font-size="38.0" fill="#EE5B67" transform="matrix(1.00, 0.00, -0.00, -1.00, 609.9, 459.0)">m</text><text xml:space="preserve" font-family="ProximaNova-Bold,Proxima Nova" font-weight="bold" font-size="38.0" fill="#EE5B67" transform="matrix(1.00, 0.00, -0.00, -1.00, 642.3, 459.0)">e</text><text xml:space="preserve" font-family="ProximaNova-Bold,Proxima Nova" font-weight="bold" font-size="38.0" fill="#EE5B67" transform="matrix(1.00, 0.00, -0.00, -1.00, 663.3, 459.0)">m</text><text xml:space="preserve" font-family="ProximaNova-Bold,Proxima Nova" font-weight="bold" font-size="38.0" fill="#EE5B67" transform="matrix(1.00, 0.00, -0.00, -1.00, 695.7, 459.0)">b</text><text xml:space="preserve" font-family="ProximaNova-Bold,Proxima Nova" font-weight="bold" font-size="38.0" fill="#EE5B67" transform="matrix(1.00, 0.00, -0.00, -1.00, 718.0, 459.0)">e</text><text xml:space="preserve" font-family="ProximaNova-Bold,Proxima Nova" font-weight="bold" font-size="38.0" fill="#EE5B67" transform="matrix(1.00, 0.00, -0.00, -1.00, 739.0, 459.0)">r</text><text xml:space="preserve" font-family="ProximaNova-Bold,Proxima Nova" font-weight="bold" font-size="38.0" fill="#EE5B67" transform="matrix(1.00, 0.00, -0.00, -1.00, 752.7, 459.0)">s</text><text xml:space="preserve" font-family="ProximaNova-Bold,Proxima Nova" font-weight="bold" font-size="38.0" fill="#EE5B67" transform="matrix(1.00, 0.00, -0.00, -1.00, 770.8, 459.0)"> </text><text xml:space="preserve" font-family="ProximaNova-Bold,Proxima Nova" font-weight="bold" font-size="38.0" fill="#EE5B67" transform="matrix(1.00, 0.00, -0.00, -1.00, 780.6, 459.0)">a</text><text xml:space="preserve" font-family="ProximaNova-Bold,Proxima Nova" font-weight="bold" font-size="38.0" fill="#EE5B67" transform="matrix(1.00, 0.00, -0.00, -1.00, 801.2, 459.0)">r</text><text xml:space="preserve" font-family="ProximaNova-Bold,Proxima Nova" font-weight="bold" font-size="38.0" fill="#EE5B67" transform="matrix(1.00, 0.00, -0.00, -1.00, 814.9, 459.0)">e</text><text xml:space="preserve" font-family="ProximaNova-Bold,Proxima Nova" font-weight="bold" font-size="38.0" fill="#EE5B67" transform="matrix(1.00, 0.00, -0.00, -1.00, 835.9, 459.0)"> </text><text xml:space="preserve" font-family="ProximaNova-Bold,Proxima Nova" font-weight="bold" font-size="38.0" fill="#EE5B67" transform="matrix(1.00, 0.00, -0.00, -1.00, 845.7, 459.0)">s</text><text xml:space="preserve" font-family="ProximaNova-Bold,Proxima Nova" font-weight="bold" font-size="38.0" fill="#EE5B67" transform="matrix(1.00, 0.00, -0.00, -1.00, 863.8, 459.0)">o</text><text xml:space="preserve" font-family="ProximaNova-Bold,Proxima Nova" font-weight="bold" font-size="38.0" fill="#EE5B67" transform="matrix(1.00, 0.00, -0.00, -1.00, 885.6, 459.0)"> </text><text xml:space="preserve" font-family="ProximaNova-Bold,Proxima Nova" font-weight="bold" font-size="38.0" fill="#EE5B67" transform="matrix(1.00, 0.00, -0.00, -1.00, 546.2, 413.0)">w</text><text xml:space="preserve" font-family="ProximaNova-Bold,Proxima Nova" font-weight="bold" font-size="38.0" fill="#EE5B67" transform="matrix(1.00, 0.00, -0.00, -1.00, 575.5, 413.0)">e</text><text xml:space="preserve" font-family="ProximaNova-Bold,Proxima Nova" font-weight="bold" font-size="38.0" fill="#EE5B67" transform="matrix(1.00, 0.00, -0.00, -1.00, 596.5, 413.0)">l</text><text xml:space="preserve" font-family="ProximaNova-Bold,Proxima Nova" font-weight="bold" font-size="38.0" fill="#EE5B67" transform="matrix(1.00, 0.00, -0.00, -1.00, 606.1, 413.0)">c</text><text xml:space="preserve" font-family="ProximaNova-Bold,Proxima Nova" font-weight="bold" font-size="38.0" fill="#EE5B67" transform="matrix(1.00, 0.00, -0.00, -1.00, 625.1, 413.0)">o</text><text xml:space="preserve" font-family="ProximaNova-Bold,Proxima Nova" font-weight="bold" font-size="38.0" fill="#EE5B67" transform="matrix(1.00, 0.00, -0.00, -1.00, 646.9, 413.0)">m</text><text xml:space="preserve" font-family="ProximaNova-Bold,Proxima Nova" font-weight="bold" font-size="38.0" fill="#EE5B67" transform="matrix(1.00, 0.00, -0.00, -1.00, 679.4, 413.0)">i</text><text xml:space="preserve" font-family="ProximaNova-Bold,Proxima Nova" font-weight="bold" font-size="38.0" fill="#EE5B67" transform="matrix(1.00, 0.00, -0.00, -1.00, 689.0, 413.0)">n</text><text xml:space="preserve" font-family="ProximaNova-Bold,Proxima Nova" font-weight="bold" font-size="38.0" fill="#EE5B67" transform="matrix(1.00, 0.00, -0.00, -1.00, 711.0, 413.0)">g</text><text xml:space="preserve" font-family="ProximaNova-Bold,Proxima Nova" font-weight="bold" font-size="38.0" fill="#EE5B67" transform="matrix(1.00, 0.00, -0.00, -1.00, 733.2, 413.0)"> </text><text xml:space="preserve" font-family="ProximaNova-Bold,Proxima Nova" font-weight="bold" font-size="38.0" fill="#EE5B67" transform="matrix(1.00, 0.00, -0.00, -1.00, 743.0, 413.0)">t</text><text xml:space="preserve" font-family="ProximaNova-Bold,Proxima Nova" font-weight="bold" font-size="38.0" fill="#EE5B67" transform="matrix(1.00, 0.00, -0.00, -1.00, 755.8, 413.0)">o</text><text xml:space="preserve" font-family="ProximaNova-Bold,Proxima Nova" font-weight="bold" font-size="38.0" fill="#EE5B67" transform="matrix(1.00, 0.00, -0.00, -1.00, 777.7, 413.0)"> </text><text xml:space="preserve" font-family="ProximaNova-Bold,Proxima Nova" font-weight="bold" font-size="38.0" fill="#EE5B67" transform="matrix(1.00, 0.00, -0.00, -1.00, 787.4, 413.0)">p</text><text xml:space="preserve" font-family="ProximaNova-Bold,Proxima Nova" font-weight="bold" font-size="38.0" fill="#EE5B67" transform="matrix(1.00, 0.00, -0.00, -1.00, 809.6, 413.0)">e</text><text xml:space="preserve" font-family="ProximaNova-Bold,Proxima Nova" font-weight="bold" font-size="38.0" fill="#EE5B67" transform="matrix(1.00, 0.00, -0.00, -1.00, 830.6, 413.0)">o</text><text xml:space="preserve" font-family="ProximaNova-Bold,Proxima Nova" font-weight="bold" font-size="38.0" fill="#EE5B67" transform="matrix(1.00, 0.00, -0.00, -1.00, 852.4, 413.0)">p</text><text xml:space="preserve" font-family="ProximaNova-Bold,Proxima Nova" font-weight="bold" font-size="38.0" fill="#EE5B67" transform="matrix(1.00, 0.00, -0.00, -1.00, 874.6, 413.0)">l</text><text xml:space="preserve" font-family="ProximaNova-Bold,Proxima Nova" font-weight="bold" font-size="38.0" fill="#EE5B67" transform="matrix(1.00, 0.00, -0.00, -1.00, 884.2, 413.0)">e</text><text xml:space="preserve" font-family="ProximaNova-Bold,Proxima Nova" font-weight="bold" font-size="38.0" fill="#EE5B67" transform="matrix(1.00, 0.00, -0.00, -1.00, 905.2, 413.0)"> </text><text xml:space="preserve" font-family="ProximaNova-Bold,Proxima Nova" font-weight="bold" font-size="38.0" fill="#EE5B67" transform="matrix(1.00, 0.00, -0.00, -1.00, 915.0, 413.0)">o</text><text xml:space="preserve" font-family="ProximaNova-Bold,Proxima Nova" font-weight="bold" font-size="38.0" fill="#EE5B67" transform="matrix(1.00, 0.00, -0.00, -1.00, 936.8, 413.0)">f</text><text xml:space="preserve" font-family="ProximaNova-Bold,Proxima Nova" font-weight="bold" font-size="38.0" fill="#EE5B67" transform="matrix(1.00, 0.00, -0.00, -1.00, 949.3, 413.0)"> </text><text xml:space="preserve" font-family="ProximaNova-Bold,Proxima Nova" font-weight="bold" font-size="38.0" fill="#EE5B67" transform="matrix(1.00, 0.00, -0.00, -1.00, 630.1, 367.0)">a</text><text xml:space="preserve" font-family="ProximaNova-Bold,Proxima Nova" font-weight="bold" font-size="38.0" fill="#EE5B67" transform="matrix(1.00, 0.00, -0.00, -1.00, 650.7, 367.0)">l</text><text xml:space="preserve" font-family="ProximaNova-Bold,Proxima Nova" font-weight="bold" font-size="38.0" fill="#EE5B67" transform="matrix(1.00, 0.00, -0.00, -1.00, 660.3, 367.0)">l</text><text xml:space="preserve" font-family="ProximaNova-Bold,Proxima Nova" font-weight="bold" font-size="38.0" fill="#EE5B67" transform="matrix(1.00, 0.00, -0.00, -1.00, 669.9, 367.0)"> </text><text xml:space="preserve" font-family="ProximaNova-Bold,Proxima Nova" font-weight="bold" font-size="38.0" fill="#EE5B67" transform="matrix(1.00, 0.00, -0.00, -1.00, 679.7, 367.0)">s</text><text xml:space="preserve" font-family="ProximaNova-Bold,Proxima Nova" font-weight="bold" font-size="38.0" fill="#EE5B67" transform="matrix(1.00, 0.00, -0.00, -1.00, 697.8, 367.0)">k</text><text xml:space="preserve" font-family="ProximaNova-Bold,Proxima Nova" font-weight="bold" font-size="38.0" fill="#EE5B67" transform="matrix(1.00, 0.00, -0.00, -1.00, 718.2, 367.0)">i</text><text xml:space="preserve" font-family="ProximaNova-Bold,Proxima Nova" font-weight="bold" font-size="38.0" fill="#EE5B67" transform="matrix(1.00, 0.00, -0.00, -1.00, 727.8, 367.0)">l</text><text xml:space="preserve" font-family="ProximaNova-Bold,Proxima Nova" font-weight="bold" font-size="38.0" fill="#EE5B67" transform="matrix(1.00, 0.00, -0.00, -1.00, 737.4, 367.0)">l</text><text xml:space="preserve" font-family="ProximaNova-Bold,Proxima Nova" font-weight="bold" font-size="38.0" fill="#EE5B67" transform="matrix(1.00, 0.00, -0.00, -1.00, 747.0, 367.0)"> </text><text xml:space="preserve" font-family="ProximaNova-Bold,Proxima Nova" font-weight="bold" font-size="38.0" fill="#EE5B67" transform="matrix(1.00, 0.00, -0.00, -1.00, 756.8, 367.0)">l</text><text xml:space="preserve" font-family="ProximaNova-Bold,Proxima Nova" font-weight="bold" font-size="38.0" fill="#EE5B67" transform="matrix(1.00, 0.00, -0.00, -1.00, 766.4, 367.0)">e</text><text xml:space="preserve" font-family="ProximaNova-Bold,Proxima Nova" font-weight="bold" font-size="38.0" fill="#EE5B67" transform="matrix(1.00, 0.00, -0.00, -1.00, 787.4, 367.0)">v</text><text xml:space="preserve" font-family="ProximaNova-Bold,Proxima Nova" font-weight="bold" font-size="38.0" fill="#EE5B67" transform="matrix(1.00, 0.00, -0.00, -1.00, 806.9, 367.0)">e</text><text xml:space="preserve" font-family="ProximaNova-Bold,Proxima Nova" font-weight="bold" font-size="38.0" fill="#EE5B67" transform="matrix(1.00, 0.00, -0.00, -1.00, 827.9, 367.0)">l</text><text xml:space="preserve" font-family="ProximaNova-Bold,Proxima Nova" font-weight="bold" font-size="38.0" fill="#EE5B67" transform="matrix(1.00, 0.00, -0.00, -1.00, 837.5, 367.0)">s</text><text xml:space="preserve" font-family="ProximaNova-Bold,Proxima Nova" font-weight="bold" font-size="38.0" fill="#EE5B67" transform="matrix(1.00, 0.00, -0.00, -1.00, 855.7, 367.0)">.</text><text xml:space="preserve" font-family="ProximaNova-Bold,Proxima Nova" font-weight="bold" font-size="38.0" fill="#EE5B67" transform="matrix(1.00, 0.00, -0.00, -1.00, 865.4, 367.0)"> </text><text xml:space="preserve" font-family="ProximaNova-Bold,Proxima Nova" font-weight="bold" font-size="38.0" fill="#EE5B67" transform="matrix(1.00, 0.00, -0.00, -1.00, 540.1, 321.0)">A</text><text xml:space="preserve" font-family="ProximaNova-Bold,Proxima Nova" font-weight="bold" font-size="38.0" fill="#EE5B67" transform="matrix(1.00, 0.00, -0.00, -1.00, 566.1, 321.0)">d</text><text xml:space="preserve" font-family="ProximaNova-Bold,Proxima Nova" font-weight="bold" font-size="38.0" fill="#EE5B67" transform="matrix(1.00, 0.00, -0.00, -1.00, 588.4, 321.0)">d</text><text xml:space="preserve" font-family="ProximaNova-Bold,Proxima Nova" font-weight="bold" font-size="38.0" fill="#EE5B67" transform="matrix(1.00, 0.00, -0.00, -1.00, 610.7, 321.0)">i</text><text xml:space="preserve" font-family="ProximaNova-Bold,Proxima Nova" font-weight="bold" font-size="38.0" fill="#EE5B67" transform="matrix(1.00, 0.00, -0.00, -1.00, 620.3, 321.0)">t</text><text xml:space="preserve" font-family="ProximaNova-Bold,Proxima Nova" font-weight="bold" font-size="38.0" fill="#EE5B67" transform="matrix(1.00, 0.00, -0.00, -1.00, 633.1, 321.0)">i</text><text xml:space="preserve" font-family="ProximaNova-Bold,Proxima Nova" font-weight="bold" font-size="38.0" fill="#EE5B67" transform="matrix(1.00, 0.00, -0.00, -1.00, 642.7, 321.0)">o</text><text xml:space="preserve" font-family="ProximaNova-Bold,Proxima Nova" font-weight="bold" font-size="38.0" fill="#EE5B67" transform="matrix(1.00, 0.00, -0.00, -1.00, 664.6, 321.0)">n</text><text xml:space="preserve" font-family="ProximaNova-Bold,Proxima Nova" font-weight="bold" font-size="38.0" fill="#EE5B67" transform="matrix(1.00, 0.00, -0.00, -1.00, 686.6, 321.0)">a</text><text xml:space="preserve" font-family="ProximaNova-Bold,Proxima Nova" font-weight="bold" font-size="38.0" fill="#EE5B67" transform="matrix(1.00, 0.00, -0.00, -1.00, 707.2, 321.0)">l</text><text xml:space="preserve" font-family="ProximaNova-Bold,Proxima Nova" font-weight="bold" font-size="38.0" fill="#EE5B67" transform="matrix(1.00, 0.00, -0.00, -1.00, 716.8, 321.0)">l</text><text xml:space="preserve" font-family="ProximaNova-Bold,Proxima Nova" font-weight="bold" font-size="38.0" fill="#EE5B67" transform="matrix(1.00, 0.00, -0.00, -1.00, 726.5, 321.0)">y</text><text xml:space="preserve" font-family="ProximaNova-Bold,Proxima Nova" font-weight="bold" font-size="38.0" fill="#EE5B67" transform="matrix(1.00, 0.00, -0.00, -1.00, 743.9, 321.0)">,</text><text xml:space="preserve" font-family="ProximaNova-Bold,Proxima Nova" font-weight="bold" font-size="38.0" fill="#EE5B67" transform="matrix(1.00, 0.00, -0.00, -1.00, 753.6, 321.0)"> </text><text xml:space="preserve" font-family="ProximaNova-Bold,Proxima Nova" font-weight="bold" font-size="38.0" fill="#EE5B67" transform="matrix(1.00, 0.00, -0.00, -1.00, 763.4, 321.0)">t</text><text xml:space="preserve" font-family="ProximaNova-Bold,Proxima Nova" font-weight="bold" font-size="38.0" fill="#EE5B67" transform="matrix(1.00, 0.00, -0.00, -1.00, 776.2, 321.0)">h</text><text xml:space="preserve" font-family="ProximaNova-Bold,Proxima Nova" font-weight="bold" font-size="38.0" fill="#EE5B67" transform="matrix(1.00, 0.00, -0.00, -1.00, 798.2, 321.0)">e</text><text xml:space="preserve" font-family="ProximaNova-Bold,Proxima Nova" font-weight="bold" font-size="38.0" fill="#EE5B67" transform="matrix(1.00, 0.00, -0.00, -1.00, 819.2, 321.0)"> </text><text xml:space="preserve" font-family="ProximaNova-Bold,Proxima Nova" font-weight="bold" font-size="38.0" fill="#EE5B67" transform="matrix(1.00, 0.00, -0.00, -1.00, 829.0, 321.0)">l</text><text xml:space="preserve" font-family="ProximaNova-Bold,Proxima Nova" font-weight="bold" font-size="38.0" fill="#EE5B67" transform="matrix(1.00, 0.00, -0.00, -1.00, 838.6, 321.0)">e</text><text xml:space="preserve" font-family="ProximaNova-Bold,Proxima Nova" font-weight="bold" font-size="38.0" fill="#EE5B67" transform="matrix(1.00, 0.00, -0.00, -1.00, 859.6, 321.0)">a</text><text xml:space="preserve" font-family="ProximaNova-Bold,Proxima Nova" font-weight="bold" font-size="38.0" fill="#EE5B67" transform="matrix(1.00, 0.00, -0.00, -1.00, 880.3, 321.0)">d</text><text xml:space="preserve" font-family="ProximaNova-Bold,Proxima Nova" font-weight="bold" font-size="38.0" fill="#EE5B67" transform="matrix(1.00, 0.00, -0.00, -1.00, 902.5, 321.0)">e</text><text xml:space="preserve" font-family="ProximaNova-Bold,Proxima Nova" font-weight="bold" font-size="38.0" fill="#EE5B67" transform="matrix(1.00, 0.00, -0.00, -1.00, 923.6, 321.0)">r</text><text xml:space="preserve" font-family="ProximaNova-Bold,Proxima Nova" font-weight="bold" font-size="38.0" fill="#EE5B67" transform="matrix(1.00, 0.00, -0.00, -1.00, 937.2, 321.0)">s</text><text xml:space="preserve" font-family="ProximaNova-Bold,Proxima Nova" font-weight="bold" font-size="38.0" fill="#EE5B67" transform="matrix(1.00, 0.00, -0.00, -1.00, 955.4, 321.0)"> </text><text xml:space="preserve" font-family="ProximaNova-Bold,Proxima Nova" font-weight="bold" font-size="38.0" fill="#EE5B67" transform="matrix(1.00, 0.00, -0.00, -1.00, 587.1, 275.0)">a</text><text xml:space="preserve" font-family="ProximaNova-Bold,Proxima Nova" font-weight="bold" font-size="38.0" fill="#EE5B67" transform="matrix(1.00, 0.00, -0.00, -1.00, 607.7, 275.0)">n</text><text xml:space="preserve" font-family="ProximaNova-Bold,Proxima Nova" font-weight="bold" font-size="38.0" fill="#EE5B67" transform="matrix(1.00, 0.00, -0.00, -1.00, 629.7, 275.0)">d</text><text xml:space="preserve" font-family="ProximaNova-Bold,Proxima Nova" font-weight="bold" font-size="38.0" fill="#EE5B67" transform="matrix(1.00, 0.00, -0.00, -1.00, 652.0, 275.0)"> </text><text xml:space="preserve" font-family="ProximaNova-Bold,Proxima Nova" font-weight="bold" font-size="38.0" fill="#EE5B67" transform="matrix(1.00, 0.00, -0.00, -1.00, 661.7, 275.0)">v</text><text xml:space="preserve" font-family="ProximaNova-Bold,Proxima Nova" font-weight="bold" font-size="38.0" fill="#EE5B67" transform="matrix(1.00, 0.00, -0.00, -1.00, 681.2, 275.0)">o</text><text xml:space="preserve" font-family="ProximaNova-Bold,Proxima Nova" font-weight="bold" font-size="38.0" fill="#EE5B67" transform="matrix(1.00, 0.00, -0.00, -1.00, 703.1, 275.0)">l</text><text xml:space="preserve" font-family="ProximaNova-Bold,Proxima Nova" font-weight="bold" font-size="38.0" fill="#EE5B67" transform="matrix(1.00, 0.00, -0.00, -1.00, 712.7, 275.0)">u</text><text xml:space="preserve" font-family="ProximaNova-Bold,Proxima Nova" font-weight="bold" font-size="38.0" fill="#EE5B67" transform="matrix(1.00, 0.00, -0.00, -1.00, 734.7, 275.0)">n</text><text xml:space="preserve" font-family="ProximaNova-Bold,Proxima Nova" font-weight="bold" font-size="38.0" fill="#EE5B67" transform="matrix(1.00, 0.00, -0.00, -1.00, 756.7, 275.0)">t</text><text xml:space="preserve" font-family="ProximaNova-Bold,Proxima Nova" font-weight="bold" font-size="38.0" fill="#EE5B67" transform="matrix(1.00, 0.00, -0.00, -1.00, 769.5, 275.0)">e</text><text xml:space="preserve" font-family="ProximaNova-Bold,Proxima Nova" font-weight="bold" font-size="38.0" fill="#EE5B67" transform="matrix(1.00, 0.00, -0.00, -1.00, 790.5, 275.0)">e</text><text xml:space="preserve" font-family="ProximaNova-Bold,Proxima Nova" font-weight="bold" font-size="38.0" fill="#EE5B67" transform="matrix(1.00, 0.00, -0.00, -1.00, 811.6, 275.0)">r</text><text xml:space="preserve" font-family="ProximaNova-Bold,Proxima Nova" font-weight="bold" font-size="38.0" fill="#EE5B67" transform="matrix(1.00, 0.00, -0.00, -1.00, 825.2, 275.0)">s</text><text xml:space="preserve" font-family="ProximaNova-Bold,Proxima Nova" font-weight="bold" font-size="38.0" fill="#EE5B67" transform="matrix(1.00, 0.00, -0.00, -1.00, 843.4, 275.0)"> </text><text xml:space="preserve" font-family="ProximaNova-Bold,Proxima Nova" font-weight="bold" font-size="38.0" fill="#EE5B67" transform="matrix(1.00, 0.00, -0.00, -1.00, 853.1, 275.0)">a</text><text xml:space="preserve" font-family="ProximaNova-Bold,Proxima Nova" font-weight="bold" font-size="38.0" fill="#EE5B67" transform="matrix(1.00, 0.00, -0.00, -1.00, 873.8, 275.0)">r</text><text xml:space="preserve" font-family="ProximaNova-Bold,Proxima Nova" font-weight="bold" font-size="38.0" fill="#EE5B67" transform="matrix(1.00, 0.00, -0.00, -1.00, 887.4, 275.0)">e</text><text xml:space="preserve" font-family="ProximaNova-Bold,Proxima Nova" font-weight="bold" font-size="38.0" fill="#EE5B67" transform="matrix(1.00, 0.00, -0.00, -1.00, 908.5, 275.0)"> </text><text xml:space="preserve" font-family="ProximaNova-Bold,Proxima Nova" font-weight="bold" font-size="38.0" fill="#EE5B67" transform="matrix(1.00, 0.00, -0.00, -1.00, 555.2, 229.0)">w</text><text xml:space="preserve" font-family="ProximaNova-Bold,Proxima Nova" font-weight="bold" font-size="38.0" fill="#EE5B67" transform="matrix(1.00, 0.00, -0.00, -1.00, 584.5, 229.0)">o</text><text xml:space="preserve" font-family="ProximaNova-Bold,Proxima Nova" font-weight="bold" font-size="38.0" fill="#EE5B67" transform="matrix(1.00, 0.00, -0.00, -1.00, 606.3, 229.0)">n</text><text xml:space="preserve" font-family="ProximaNova-Bold,Proxima Nova" font-weight="bold" font-size="38.0" fill="#EE5B67" transform="matrix(1.00, 0.00, -0.00, -1.00, 628.3, 229.0)">d</text><text xml:space="preserve" font-family="ProximaNova-Bold,Proxima Nova" font-weight="bold" font-size="38.0" fill="#EE5B67" transform="matrix(1.00, 0.00, -0.00, -1.00, 650.6, 229.0)">e</text><text xml:space="preserve" font-family="ProximaNova-Bold,Proxima Nova" font-weight="bold" font-size="38.0" fill="#EE5B67" transform="matrix(1.00, 0.00, -0.00, -1.00, 671.6, 229.0)">r</text><text xml:space="preserve" font-family="ProximaNova-Bold,Proxima Nova" font-weight="bold" font-size="38.0" fill="#EE5B67" transform="matrix(1.00, 0.00, -0.00, -1.00, 685.3, 229.0)">f</text><text xml:space="preserve" font-family="ProximaNova-Bold,Proxima Nova" font-weight="bold" font-size="38.0" fill="#EE5B67" transform="matrix(1.00, 0.00, -0.00, -1.00, 697.7, 229.0)">u</text><text xml:space="preserve" font-family="ProximaNova-Bold,Proxima Nova" font-weight="bold" font-size="38.0" fill="#EE5B67" transform="matrix(1.00, 0.00, -0.00, -1.00, 719.7, 229.0)">l</text><text xml:space="preserve" font-family="ProximaNova-Bold,Proxima Nova" font-weight="bold" font-size="38.0" fill="#EE5B67" transform="matrix(1.00, 0.00, -0.00, -1.00, 729.3, 229.0)"> </text><text xml:space="preserve" font-family="ProximaNova-Bold,Proxima Nova" font-weight="bold" font-size="38.0" fill="#EE5B67" transform="matrix(1.00, 0.00, -0.00, -1.00, 739.1, 229.0)">r</text><text xml:space="preserve" font-family="ProximaNova-Bold,Proxima Nova" font-weight="bold" font-size="38.0" fill="#EE5B67" transform="matrix(1.00, 0.00, -0.00, -1.00, 752.8, 229.0)">o</text><text xml:space="preserve" font-family="ProximaNova-Bold,Proxima Nova" font-weight="bold" font-size="38.0" fill="#EE5B67" transform="matrix(1.00, 0.00, -0.00, -1.00, 774.6, 229.0)">l</text><text xml:space="preserve" font-family="ProximaNova-Bold,Proxima Nova" font-weight="bold" font-size="38.0" fill="#EE5B67" transform="matrix(1.00, 0.00, -0.00, -1.00, 784.2, 229.0)">e</text><text xml:space="preserve" font-family="ProximaNova-Bold,Proxima Nova" font-weight="bold" font-size="38.0" fill="#EE5B67" transform="matrix(1.00, 0.00, -0.00, -1.00, 805.2, 229.0)"> </text><text xml:space="preserve" font-family="ProximaNova-Bold,Proxima Nova" font-weight="bold" font-size="38.0" fill="#EE5B67" transform="matrix(1.00, 0.00, -0.00, -1.00, 815.0, 229.0)">m</text><text xml:space="preserve" font-family="ProximaNova-Bold,Proxima Nova" font-weight="bold" font-size="38.0" fill="#EE5B67" transform="matrix(1.00, 0.00, -0.00, -1.00, 847.4, 229.0)">o</text><text xml:space="preserve" font-family="ProximaNova-Bold,Proxima Nova" font-weight="bold" font-size="38.0" fill="#EE5B67" transform="matrix(1.00, 0.00, -0.00, -1.00, 869.3, 229.0)">d</text><text xml:space="preserve" font-family="ProximaNova-Bold,Proxima Nova" font-weight="bold" font-size="38.0" fill="#EE5B67" transform="matrix(1.00, 0.00, -0.00, -1.00, 891.5, 229.0)">e</text><text xml:space="preserve" font-family="ProximaNova-Bold,Proxima Nova" font-weight="bold" font-size="38.0" fill="#EE5B67" transform="matrix(1.00, 0.00, -0.00, -1.00, 912.6, 229.0)">l</text><text xml:space="preserve" font-family="ProximaNova-Bold,Proxima Nova" font-weight="bold" font-size="38.0" fill="#EE5B67" transform="matrix(1.00, 0.00, -0.00, -1.00, 922.2, 229.0)">s</text><text xml:space="preserve" font-family="ProximaNova-Bold,Proxima Nova" font-weight="bold" font-size="38.0" fill="#EE5B67" transform="matrix(1.00, 0.00, -0.00, -1.00, 940.3, 229.0)"> </text><text xml:space="preserve" font-family="ProximaNova-Bold,Proxima Nova" font-weight="bold" font-size="38.0" fill="#EE5B67" transform="matrix(1.00, 0.00, -0.00, -1.00, 575.0, 183.0)">f</text><text xml:space="preserve" font-family="ProximaNova-Bold,Proxima Nova" font-weight="bold" font-size="38.0" fill="#EE5B67" transform="matrix(1.00, 0.00, -0.00, -1.00, 587.4, 183.0)">o</text><text xml:space="preserve" font-family="ProximaNova-Bold,Proxima Nova" font-weight="bold" font-size="38.0" fill="#EE5B67" transform="matrix(1.00, 0.00, -0.00, -1.00, 609.3, 183.0)">r</text><text xml:space="preserve" font-family="ProximaNova-Bold,Proxima Nova" font-weight="bold" font-size="38.0" fill="#EE5B67" transform="matrix(1.00, 0.00, -0.00, -1.00, 623.0, 183.0)"> </text><text xml:space="preserve" font-family="ProximaNova-Bold,Proxima Nova" font-weight="bold" font-size="38.0" fill="#EE5B67" transform="matrix(1.00, 0.00, -0.00, -1.00, 632.7, 183.0)">w</text><text xml:space="preserve" font-family="ProximaNova-Bold,Proxima Nova" font-weight="bold" font-size="38.0" fill="#EE5B67" transform="matrix(1.00, 0.00, -0.00, -1.00, 662.0, 183.0)">o</text><text xml:space="preserve" font-family="ProximaNova-Bold,Proxima Nova" font-weight="bold" font-size="38.0" fill="#EE5B67" transform="matrix(1.00, 0.00, -0.00, -1.00, 683.9, 183.0)">m</text><text xml:space="preserve" font-family="ProximaNova-Bold,Proxima Nova" font-weight="bold" font-size="38.0" fill="#EE5B67" transform="matrix(1.00, 0.00, -0.00, -1.00, 716.3, 183.0)">e</text><text xml:space="preserve" font-family="ProximaNova-Bold,Proxima Nova" font-weight="bold" font-size="38.0" fill="#EE5B67" transform="matrix(1.00, 0.00, -0.00, -1.00, 737.3, 183.0)">n</text><text xml:space="preserve" font-family="ProximaNova-Bold,Proxima Nova" font-weight="bold" font-size="38.0" fill="#EE5B67" transform="matrix(1.00, 0.00, -0.00, -1.00, 759.3, 183.0)"> </text><text xml:space="preserve" font-family="ProximaNova-Bold,Proxima Nova" font-weight="bold" font-size="38.0" fill="#EE5B67" transform="matrix(1.00, 0.00, -0.00, -1.00, 769.1, 183.0)">n</text><text xml:space="preserve" font-family="ProximaNova-Bold,Proxima Nova" font-weight="bold" font-size="38.0" fill="#EE5B67" transform="matrix(1.00, 0.00, -0.00, -1.00, 791.1, 183.0)">e</text><text xml:space="preserve" font-family="ProximaNova-Bold,Proxima Nova" font-weight="bold" font-size="38.0" fill="#EE5B67" transform="matrix(1.00, 0.00, -0.00, -1.00, 812.1, 183.0)">w</text><text xml:space="preserve" font-family="ProximaNova-Bold,Proxima Nova" font-weight="bold" font-size="38.0" fill="#EE5B67" transform="matrix(1.00, 0.00, -0.00, -1.00, 841.3, 183.0)">e</text><text xml:space="preserve" font-family="ProximaNova-Bold,Proxima Nova" font-weight="bold" font-size="38.0" fill="#EE5B67" transform="matrix(1.00, 0.00, -0.00, -1.00, 862.3, 183.0)">r</text><text xml:space="preserve" font-family="ProximaNova-Bold,Proxima Nova" font-weight="bold" font-size="38.0" fill="#EE5B67" transform="matrix(1.00, 0.00, -0.00, -1.00, 876.0, 183.0)"> </text><text xml:space="preserve" font-family="ProximaNova-Bold,Proxima Nova" font-weight="bold" font-size="38.0" fill="#EE5B67" transform="matrix(1.00, 0.00, -0.00, -1.00, 885.8, 183.0)">t</text><text xml:space="preserve" font-family="ProximaNova-Bold,Proxima Nova" font-weight="bold" font-size="38.0" fill="#EE5B67" transform="matrix(1.00, 0.00, -0.00, -1.00, 898.6, 183.0)">o</text><text xml:space="preserve" font-family="ProximaNova-Bold,Proxima Nova" font-weight="bold" font-size="38.0" fill="#EE5B67" transform="matrix(1.00, 0.00, -0.00, -1.00, 920.5, 183.0)"> </text><text xml:space="preserve" font-family="ProximaNova-Bold,Proxima Nova" font-weight="bold" font-size="38.0" fill="#EE5B67" transform="matrix(1.00, 0.00, -0.00, -1.00, 699.3, 137.0)">t</text><text xml:space="preserve" font-family="ProximaNova-Bold,Proxima Nova" font-weight="bold" font-size="38.0" fill="#EE5B67" transform="matrix(1.00, 0.00, -0.00, -1.00, 712.1, 137.0)">e</text><text xml:space="preserve" font-family="ProximaNova-Bold,Proxima Nova" font-weight="bold" font-size="38.0" fill="#EE5B67" transform="matrix(1.00, 0.00, -0.00, -1.00, 733.2, 137.0)">c</text><text xml:space="preserve" font-family="ProximaNova-Bold,Proxima Nova" font-weight="bold" font-size="38.0" fill="#EE5B67" transform="matrix(1.00, 0.00, -0.00, -1.00, 752.1, 137.0)">h</text><text xml:space="preserve" font-family="ProximaNova-Bold,Proxima Nova" font-weight="bold" font-size="38.0" fill="#EE5B67" transform="matrix(1.00, 0.00, -0.00, -1.00, 774.2, 137.0)">.</text><text xml:space="preserve" font-family="ProximaNova-Bold,Proxima Nova" font-weight="bold" font-size="38.0" fill="#EE5B67" transform="matrix(1.00, 0.00, -0.00, -1.00, 780.8, 137.0)">"</text><image xlink:href="../../05BA5F26-CEC8-48CA-916E-942968225296/assets/B5F3A0355150821AED8F04F659292655.jpeg" width="3264.00" height="2448.00" transform="matrix(0.12, 0.00, -0.00, -0.12, 76.5, 355.0)"></image><image xlink:href="../../05BA5F26-CEC8-48CA-916E-942968225296/assets/CA98F60488573F7ED834F573BD125F0F.png" width="526.00" height="524.00" transform="matrix(0.57, 0.00, -0.00, -0.57, 118.8, 699.8)"></image></g></svg>