<?xml version="1.0" encoding="UTF-8" standalone="no"?><svg xmlns="http://www.w3.org/2000/svg" xmlns:xlink="http://www.w3.org/1999/xlink" clip-rule="evenodd" stroke-miterlimit="10" viewBox="0 0 1024 768"><desc>SVG generated by Keynote</desc><defs></defs><g transform="matrix(1.00, 0.00, -0.00, -1.00, 0.0, 768.0)"><path d="M 0.0 768.0 L 1024.0 768.0 L 1024.0 0.0 L 0.0 0.0 Z M 0.0 768.0 " fill="#EE5B67"></path><text xml:space="preserve" font-family="ProximaNova-Bold,Proxima Nova" font-weight="bold" font-size="80.0" fill="#FFFFFF" transform="matrix(1.00, 0.00, -0.00, -1.00, 171.8, 352.8)">P</text><text xml:space="preserve" font-family="ProximaNova-Bold,Proxima Nova" font-weight="bold" font-size="80.0" fill="#FFFFFF" transform="matrix(1.00, 0.00, -0.00, -1.00, 221.8, 352.8)">l</text><text xml:space="preserve" font-family="ProximaNova-Bold,Proxima Nova" font-weight="bold" font-size="80.0" fill="#FFFFFF" transform="matrix(1.00, 0.00, -0.00, -1.00, 242.0, 352.8)">a</text><text xml:space="preserve" font-family="ProximaNova-Bold,Proxima Nova" font-weight="bold" font-size="80.0" fill="#FFFFFF" transform="matrix(1.00, 0.00, -0.00, -1.00, 285.4, 352.8)">t</text><text xml:space="preserve" font-family="ProximaNova-Bold,Proxima Nova" font-weight="bold" font-size="80.0" fill="#FFFFFF" transform="matrix(1.00, 0.00, -0.00, -1.00, 312.5, 352.8)">i</text><text xml:space="preserve" font-family="ProximaNova-Bold,Proxima Nova" font-weight="bold" font-size="80.0" fill="#FFFFFF" transform="matrix(1.00, 0.00, -0.00, -1.00, 332.7, 352.8)">n</text><text xml:space="preserve" font-family="ProximaNova-Bold,Proxima Nova" font-weight="bold" font-size="80.0" fill="#FFFFFF" transform="matrix(1.00, 0.00, -0.00, -1.00, 379.0, 352.8)">u</text><text xml:space="preserve" font-family="ProximaNova-Bold,Proxima Nova" font-weight="bold" font-size="80.0" fill="#FFFFFF" transform="matrix(1.00, 0.00, -0.00, -1.00, 425.4, 352.8)">m</text><text xml:space="preserve" font-family="ProximaNova-Bold,Proxima Nova" font-weight="bold" font-size="80.0" fill="#FFFFFF" transform="matrix(1.00, 0.00, -0.00, -1.00, 493.6, 352.8)"> </text><text xml:space="preserve" font-family="ProximaNova-Bold,Proxima Nova" font-weight="bold" font-size="80.0" fill="#FFFFFF" transform="matrix(1.00, 0.00, -0.00, -1.00, 514.2, 352.8)">S</text><text xml:space="preserve" font-family="ProximaNova-Bold,Proxima Nova" font-weight="bold" font-size="80.0" fill="#FFFFFF" transform="matrix(1.00, 0.00, -0.00, -1.00, 562.2, 352.8)">p</text><text xml:space="preserve" font-family="ProximaNova-Bold,Proxima Nova" font-weight="bold" font-size="80.0" fill="#FFFFFF" transform="matrix(1.00, 0.00, -0.00, -1.00, 608.8, 352.8)">o</text><text xml:space="preserve" font-family="ProximaNova-Bold,Proxima Nova" font-weight="bold" font-size="80.0" fill="#FFFFFF" transform="matrix(1.00, 0.00, -0.00, -1.00, 654.8, 352.8)">n</text><text xml:space="preserve" font-family="ProximaNova-Bold,Proxima Nova" font-weight="bold" font-size="80.0" fill="#FFFFFF" transform="matrix(1.00, 0.00, -0.00, -1.00, 701.1, 352.8)">s</text><text xml:space="preserve" font-family="ProximaNova-Bold,Proxima Nova" font-weight="bold" font-size="80.0" fill="#FFFFFF" transform="matrix(1.00, 0.00, -0.00, -1.00, 739.3, 352.8)">o</text><text xml:space="preserve" font-family="ProximaNova-Bold,Proxima Nova" font-weight="bold" font-size="80.0" fill="#FFFFFF" transform="matrix(1.00, 0.00, -0.00, -1.00, 785.3, 352.8)">r</text><text xml:space="preserve" font-family="ProximaNova-Bold,Proxima Nova" font-weight="bold" font-size="80.0" fill="#FFFFFF" transform="matrix(1.00, 0.00, -0.00, -1.00, 814.1, 352.8)">s</text></g></svg>