<?xml version="1.0" encoding="UTF-8" standalone="no"?><svg xmlns="http://www.w3.org/2000/svg" xmlns:xlink="http://www.w3.org/1999/xlink" clip-rule="evenodd" stroke-miterlimit="10" viewBox="0 0 1024 768"><desc>SVG generated by Keynote</desc><defs></defs><g transform="matrix(1.00, 0.00, -0.00, -1.00, 0.0, 768.0)"><path d="M 0.0 768.0 L 1024.0 768.0 L 1024.0 0.0 L 0.0 0.0 Z M 0.0 768.0 " fill="#FEFFFF"></path><text xml:space="preserve" font-family="ProximaNova-Bold,Proxima Nova" font-weight="bold" font-size="64.8" fill="#000000" transform="matrix(1.00, 0.00, -0.00, -1.00, 79.8, 661.6)">P</text><text xml:space="preserve" font-family="ProximaNova-Bold,Proxima Nova" font-weight="bold" font-size="64.8" fill="#000000" transform="matrix(1.00, 0.00, -0.00, -1.00, 119.0, 661.6)">a</text><text xml:space="preserve" font-family="ProximaNova-Bold,Proxima Nova" font-weight="bold" font-size="64.8" fill="#000000" transform="matrix(1.00, 0.00, -0.00, -1.00, 154.1, 661.6)">r</text><text xml:space="preserve" font-family="ProximaNova-Bold,Proxima Nova" font-weight="bold" font-size="64.8" fill="#000000" transform="matrix(1.00, 0.00, -0.00, -1.00, 177.5, 661.6)">t</text><text xml:space="preserve" font-family="ProximaNova-Bold,Proxima Nova" font-weight="bold" font-size="64.8" fill="#000000" transform="matrix(1.00, 0.00, -0.00, -1.00, 199.4, 661.6)">n</text><text xml:space="preserve" font-family="ProximaNova-Bold,Proxima Nova" font-weight="bold" font-size="64.8" fill="#000000" transform="matrix(1.00, 0.00, -0.00, -1.00, 236.9, 661.6)">e</text><text xml:space="preserve" font-family="ProximaNova-Bold,Proxima Nova" font-weight="bold" font-size="64.8" fill="#000000" transform="matrix(1.00, 0.00, -0.00, -1.00, 272.7, 661.6)">r</text><text xml:space="preserve" font-family="ProximaNova-Bold,Proxima Nova" font-weight="bold" font-size="64.8" fill="#000000" transform="matrix(1.00, 0.00, -0.00, -1.00, 296.1, 661.6)">s</text><text xml:space="preserve" font-family="ProximaNova-Bold,Proxima Nova" font-weight="bold" font-size="64.8" fill="#000000" transform="matrix(1.00, 0.00, -0.00, -1.00, 327.0, 661.6)"> </text><text xml:space="preserve" font-family="ProximaNova-Bold,Proxima Nova" font-weight="bold" font-size="64.8" fill="#000000" transform="matrix(1.00, 0.00, -0.00, -1.00, 343.6, 661.6)">a</text><text xml:space="preserve" font-family="ProximaNova-Bold,Proxima Nova" font-weight="bold" font-size="64.8" fill="#000000" transform="matrix(1.00, 0.00, -0.00, -1.00, 378.8, 661.6)">n</text><text xml:space="preserve" font-family="ProximaNova-Bold,Proxima Nova" font-weight="bold" font-size="64.8" fill="#000000" transform="matrix(1.00, 0.00, -0.00, -1.00, 416.3, 661.6)">d</text><text xml:space="preserve" font-family="ProximaNova-Bold,Proxima Nova" font-weight="bold" font-size="64.8" fill="#000000" transform="matrix(1.00, 0.00, -0.00, -1.00, 454.3, 661.6)"> </text><text xml:space="preserve" font-family="ProximaNova-Bold,Proxima Nova" font-weight="bold" font-size="64.8" fill="#000000" transform="matrix(1.00, 0.00, -0.00, -1.00, 470.9, 661.6)">O</text><text xml:space="preserve" font-family="ProximaNova-Bold,Proxima Nova" font-weight="bold" font-size="64.8" fill="#000000" transform="matrix(1.00, 0.00, -0.00, -1.00, 520.5, 661.6)">t</text><text xml:space="preserve" font-family="ProximaNova-Bold,Proxima Nova" font-weight="bold" font-size="64.8" fill="#000000" transform="matrix(1.00, 0.00, -0.00, -1.00, 542.4, 661.6)">h</text><text xml:space="preserve" font-family="ProximaNova-Bold,Proxima Nova" font-weight="bold" font-size="64.8" fill="#000000" transform="matrix(1.00, 0.00, -0.00, -1.00, 580.0, 661.6)">e</text><text xml:space="preserve" font-family="ProximaNova-Bold,Proxima Nova" font-weight="bold" font-size="64.8" fill="#000000" transform="matrix(1.00, 0.00, -0.00, -1.00, 615.8, 661.6)">r</text><text xml:space="preserve" font-family="ProximaNova-Bold,Proxima Nova" font-weight="bold" font-size="64.8" fill="#000000" transform="matrix(1.00, 0.00, -0.00, -1.00, 639.2, 661.6)"> </text><text xml:space="preserve" font-family="ProximaNova-Bold,Proxima Nova" font-weight="bold" font-size="64.8" fill="#000000" transform="matrix(1.00, 0.00, -0.00, -1.00, 655.8, 661.6)">A</text><text xml:space="preserve" font-family="ProximaNova-Bold,Proxima Nova" font-weight="bold" font-size="64.8" fill="#000000" transform="matrix(1.00, 0.00, -0.00, -1.00, 699.2, 661.6)">w</text><text xml:space="preserve" font-family="ProximaNova-Bold,Proxima Nova" font-weight="bold" font-size="64.8" fill="#000000" transform="matrix(1.00, 0.00, -0.00, -1.00, 749.1, 661.6)">e</text><text xml:space="preserve" font-family="ProximaNova-Bold,Proxima Nova" font-weight="bold" font-size="64.8" fill="#000000" transform="matrix(1.00, 0.00, -0.00, -1.00, 785.0, 661.6)">s</text><text xml:space="preserve" font-family="ProximaNova-Bold,Proxima Nova" font-weight="bold" font-size="64.8" fill="#000000" transform="matrix(1.00, 0.00, -0.00, -1.00, 815.9, 661.6)">o</text><text xml:space="preserve" font-family="ProximaNova-Bold,Proxima Nova" font-weight="bold" font-size="64.8" fill="#000000" transform="matrix(1.00, 0.00, -0.00, -1.00, 853.1, 661.6)">m</text><text xml:space="preserve" font-family="ProximaNova-Bold,Proxima Nova" font-weight="bold" font-size="64.8" fill="#000000" transform="matrix(1.00, 0.00, -0.00, -1.00, 908.4, 661.6)">e</text><text xml:space="preserve" font-family="ProximaNova-Bold,Proxima Nova" font-weight="bold" font-size="64.8" fill="#000000" transform="matrix(1.00, 0.00, -0.00, -1.00, 944.2, 661.6)"> </text><text xml:space="preserve" font-family="ProximaNova-Bold,Proxima Nova" font-weight="bold" font-size="64.8" fill="#000000" transform="matrix(1.00, 0.00, -0.00, -1.00, 164.2, 583.6)">T</text><text xml:space="preserve" font-family="ProximaNova-Bold,Proxima Nova" font-weight="bold" font-size="64.8" fill="#000000" transform="matrix(1.00, 0.00, -0.00, -1.00, 195.5, 583.6)">e</text><text xml:space="preserve" font-family="ProximaNova-Bold,Proxima Nova" font-weight="bold" font-size="64.8" fill="#000000" transform="matrix(1.00, 0.00, -0.00, -1.00, 231.4, 583.6)">c</text><text xml:space="preserve" font-family="ProximaNova-Bold,Proxima Nova" font-weight="bold" font-size="64.8" fill="#000000" transform="matrix(1.00, 0.00, -0.00, -1.00, 263.7, 583.6)">h</text><text xml:space="preserve" font-family="ProximaNova-Bold,Proxima Nova" font-weight="bold" font-size="64.8" fill="#000000" transform="matrix(1.00, 0.00, -0.00, -1.00, 301.3, 583.6)"> </text><text xml:space="preserve" font-family="ProximaNova-Bold,Proxima Nova" font-weight="bold" font-size="64.8" fill="#000000" transform="matrix(1.00, 0.00, -0.00, -1.00, 318.0, 583.6)">G</text><text xml:space="preserve" font-family="ProximaNova-Bold,Proxima Nova" font-weight="bold" font-size="64.8" fill="#000000" transform="matrix(1.00, 0.00, -0.00, -1.00, 364.6, 583.6)">r</text><text xml:space="preserve" font-family="ProximaNova-Bold,Proxima Nova" font-weight="bold" font-size="64.8" fill="#000000" transform="matrix(1.00, 0.00, -0.00, -1.00, 387.9, 583.6)">o</text><text xml:space="preserve" font-family="ProximaNova-Bold,Proxima Nova" font-weight="bold" font-size="64.8" fill="#000000" transform="matrix(1.00, 0.00, -0.00, -1.00, 425.2, 583.6)">u</text><text xml:space="preserve" font-family="ProximaNova-Bold,Proxima Nova" font-weight="bold" font-size="64.8" fill="#000000" transform="matrix(1.00, 0.00, -0.00, -1.00, 462.7, 583.6)">p</text><text xml:space="preserve" font-family="ProximaNova-Bold,Proxima Nova" font-weight="bold" font-size="64.8" fill="#000000" transform="matrix(1.00, 0.00, -0.00, -1.00, 500.5, 583.6)">s</text><text xml:space="preserve" font-family="ProximaNova-Bold,Proxima Nova" font-weight="bold" font-size="64.8" fill="#000000" transform="matrix(1.00, 0.00, -0.00, -1.00, 531.4, 583.6)"> </text><text xml:space="preserve" font-family="ProximaNova-Bold,Proxima Nova" font-weight="bold" font-size="64.8" fill="#000000" transform="matrix(1.00, 0.00, -0.00, -1.00, 548.1, 583.6)">i</text><text xml:space="preserve" font-family="ProximaNova-Bold,Proxima Nova" font-weight="bold" font-size="64.8" fill="#000000" transform="matrix(1.00, 0.00, -0.00, -1.00, 564.5, 583.6)">n</text><text xml:space="preserve" font-family="ProximaNova-Bold,Proxima Nova" font-weight="bold" font-size="64.8" fill="#000000" transform="matrix(1.00, 0.00, -0.00, -1.00, 602.0, 583.6)"> </text><text xml:space="preserve" font-family="ProximaNova-Bold,Proxima Nova" font-weight="bold" font-size="64.8" fill="#000000" transform="matrix(1.00, 0.00, -0.00, -1.00, 618.6, 583.6)">C</text><text xml:space="preserve" font-family="ProximaNova-Bold,Proxima Nova" font-weight="bold" font-size="64.8" fill="#000000" transform="matrix(1.00, 0.00, -0.00, -1.00, 663.1, 583.6)">h</text><text xml:space="preserve" font-family="ProximaNova-Bold,Proxima Nova" font-weight="bold" font-size="64.8" fill="#000000" transform="matrix(1.00, 0.00, -0.00, -1.00, 700.7, 583.6)">i</text><text xml:space="preserve" font-family="ProximaNova-Bold,Proxima Nova" font-weight="bold" font-size="64.8" fill="#000000" transform="matrix(1.00, 0.00, -0.00, -1.00, 717.1, 583.6)">c</text><text xml:space="preserve" font-family="ProximaNova-Bold,Proxima Nova" font-weight="bold" font-size="64.8" fill="#000000" transform="matrix(1.00, 0.00, -0.00, -1.00, 749.5, 583.6)">a</text><text xml:space="preserve" font-family="ProximaNova-Bold,Proxima Nova" font-weight="bold" font-size="64.8" fill="#000000" transform="matrix(1.00, 0.00, -0.00, -1.00, 784.6, 583.6)">g</text><text xml:space="preserve" font-family="ProximaNova-Bold,Proxima Nova" font-weight="bold" font-size="64.8" fill="#000000" transform="matrix(1.00, 0.00, -0.00, -1.00, 822.6, 583.6)">o</text><image xlink:href="../../3F1605C5-1754-4CDC-AF30-D01D16A7C5F7/assets/D93FEC39CA793B26A4E5A430DFE638AE.png" width="1499.00" height="638.00" transform="matrix(0.18, 0.00, -0.00, -0.18, 40.2, 525.8)"></image><image xlink:href="../../3F1605C5-1754-4CDC-AF30-D01D16A7C5F7/assets/21E26C5683C706CF2B7AEA7BA7A851B4.png" width="358.00" height="362.00" transform="matrix(0.49, 0.00, -0.00, -0.49, 759.2, 525.5)"></image><image xlink:href="../../3F1605C5-1754-4CDC-AF30-D01D16A7C5F7/assets/E1398223990F83F6B82CBBE072F27F23.png" width="250.00" height="68.00" transform="matrix(1.32, 0.00, -0.00, -1.32, 649.4, 121.8)"></image><image xlink:href="../../3F1605C5-1754-4CDC-AF30-D01D16A7C5F7/assets/AB471ACC42BC5A2B85EB32D78E0008C3.png" width="500.00" height="238.00" transform="matrix(0.48, 0.00, -0.00, -0.48, 457.1, 283.7)"></image><image xlink:href="../../3F1605C5-1754-4CDC-AF30-D01D16A7C5F7/assets/DF33B66BD40B2DE396C7AFA382E0C759.jpeg" width="157.00" height="85.00" transform="matrix(1.34, 0.00, -0.00, -1.34, 42.0, 146.7)"></image><image xlink:href="../../3F1605C5-1754-4CDC-AF30-D01D16A7C5F7/assets/B658DB2BCAC8C79961AEB15766CCD5E2.png" width="624.00" height="624.00" transform="matrix(0.41, 0.00, -0.00, -0.41, 466.7, 569.3)"></image><image xlink:href="../../3F1605C5-1754-4CDC-AF30-D01D16A7C5F7/assets/65488A1E9D8111680760D07CE6E7DF2F.jpeg" width="400.00" height="400.00" transform="matrix(0.42, 0.00, -0.00, -0.42, 63.3, 363.3)"></image><image xlink:href="../../3F1605C5-1754-4CDC-AF30-D01D16A7C5F7/assets/2C511470628A099A05E81C80E8734876.png" width="216.00" height="144.00" transform="matrix(1.24, 0.00, -0.00, -1.24, 312.0, 170.6)"></image><image xlink:href="../../3F1605C5-1754-4CDC-AF30-D01D16A7C5F7/assets/1531A57F1AF873393E607BF61AAAA53B.png" width="400.00" height="400.00" transform="matrix(0.36, 0.00, -0.00, -0.36, 765.7, 310.7)"></image><image xlink:href="../../3F1605C5-1754-4CDC-AF30-D01D16A7C5F7/assets/62C09E0FF49FF2D634DAE42A4839AE18.png" width="400.00" height="400.00" transform="matrix(0.47, 0.00, -0.00, -0.47, 264.4, 423.5)"></image></g></svg>