<?xml version="1.0" encoding="UTF-8" standalone="no"?><svg xmlns="http://www.w3.org/2000/svg" xmlns:xlink="http://www.w3.org/1999/xlink" clip-rule="evenodd" stroke-miterlimit="10" viewBox="0 0 1024 768"><desc>SVG generated by Keynote</desc><defs></defs><g transform="matrix(1.00, 0.00, -0.00, -1.00, 0.0, 768.0)"><path d="M 0.0 768.0 L 1024.0 768.0 L 1024.0 0.0 L 0.0 0.0 Z M 0.0 768.0 " fill="#FEFFFF"></path><text xml:space="preserve" font-family="ProximaNova-Bold,Proxima Nova" font-weight="bold" font-size="38.0" fill="#24A9B4" transform="matrix(1.00, 0.00, -0.00, -1.00, 135.7, 247.0)">"</text><text xml:space="preserve" font-family="ProximaNova-Bold,Proxima Nova" font-weight="bold" font-size="38.0" fill="#24A9B4" transform="matrix(1.00, 0.00, -0.00, -1.00, 151.1, 247.0)">I</text><text xml:space="preserve" font-family="ProximaNova-Bold,Proxima Nova" font-weight="bold" font-size="38.0" fill="#24A9B4" transform="matrix(1.00, 0.00, -0.00, -1.00, 161.5, 247.0)"> </text><text xml:space="preserve" font-family="ProximaNova-Bold,Proxima Nova" font-weight="bold" font-size="38.0" fill="#24A9B4" transform="matrix(1.00, 0.00, -0.00, -1.00, 171.3, 247.0)">r</text><text xml:space="preserve" font-family="ProximaNova-Bold,Proxima Nova" font-weight="bold" font-size="38.0" fill="#24A9B4" transform="matrix(1.00, 0.00, -0.00, -1.00, 185.0, 247.0)">e</text><text xml:space="preserve" font-family="ProximaNova-Bold,Proxima Nova" font-weight="bold" font-size="38.0" fill="#24A9B4" transform="matrix(1.00, 0.00, -0.00, -1.00, 206.0, 247.0)">m</text><text xml:space="preserve" font-family="ProximaNova-Bold,Proxima Nova" font-weight="bold" font-size="38.0" fill="#24A9B4" transform="matrix(1.00, 0.00, -0.00, -1.00, 238.4, 247.0)">e</text><text xml:space="preserve" font-family="ProximaNova-Bold,Proxima Nova" font-weight="bold" font-size="38.0" fill="#24A9B4" transform="matrix(1.00, 0.00, -0.00, -1.00, 259.4, 247.0)">m</text><text xml:space="preserve" font-family="ProximaNova-Bold,Proxima Nova" font-weight="bold" font-size="38.0" fill="#24A9B4" transform="matrix(1.00, 0.00, -0.00, -1.00, 291.8, 247.0)">b</text><text xml:space="preserve" font-family="ProximaNova-Bold,Proxima Nova" font-weight="bold" font-size="38.0" fill="#24A9B4" transform="matrix(1.00, 0.00, -0.00, -1.00, 314.1, 247.0)">e</text><text xml:space="preserve" font-family="ProximaNova-Bold,Proxima Nova" font-weight="bold" font-size="38.0" fill="#24A9B4" transform="matrix(1.00, 0.00, -0.00, -1.00, 335.1, 247.0)">r</text><text xml:space="preserve" font-family="ProximaNova-Bold,Proxima Nova" font-weight="bold" font-size="38.0" fill="#24A9B4" transform="matrix(1.00, 0.00, -0.00, -1.00, 348.8, 247.0)"> </text><text xml:space="preserve" font-family="ProximaNova-Bold,Proxima Nova" font-weight="bold" font-size="38.0" fill="#24A9B4" transform="matrix(1.00, 0.00, -0.00, -1.00, 358.6, 247.0)">m</text><text xml:space="preserve" font-family="ProximaNova-Bold,Proxima Nova" font-weight="bold" font-size="38.0" fill="#24A9B4" transform="matrix(1.00, 0.00, -0.00, -1.00, 391.0, 247.0)">y</text><text xml:space="preserve" font-family="ProximaNova-Bold,Proxima Nova" font-weight="bold" font-size="38.0" fill="#24A9B4" transform="matrix(1.00, 0.00, -0.00, -1.00, 410.5, 247.0)"> </text><text xml:space="preserve" font-family="ProximaNova-Bold,Proxima Nova" font-weight="bold" font-size="38.0" fill="#24A9B4" transform="matrix(1.00, 0.00, -0.00, -1.00, 420.2, 247.0)">ï¬</text><text xml:space="preserve" font-family="ProximaNova-Bold,Proxima Nova" font-weight="bold" font-size="38.0" fill="#24A9B4" transform="matrix(1.00, 0.00, -0.00, -1.00, 442.3, 247.0)">r</text><text xml:space="preserve" font-family="ProximaNova-Bold,Proxima Nova" font-weight="bold" font-size="38.0" fill="#24A9B4" transform="matrix(1.00, 0.00, -0.00, -1.00, 456.0, 247.0)">s</text><text xml:space="preserve" font-family="ProximaNova-Bold,Proxima Nova" font-weight="bold" font-size="38.0" fill="#24A9B4" transform="matrix(1.00, 0.00, -0.00, -1.00, 474.1, 247.0)">t</text><text xml:space="preserve" font-family="ProximaNova-Bold,Proxima Nova" font-weight="bold" font-size="38.0" fill="#24A9B4" transform="matrix(1.00, 0.00, -0.00, -1.00, 486.9, 247.0)"> </text><text xml:space="preserve" font-family="ProximaNova-Bold,Proxima Nova" font-weight="bold" font-size="38.0" fill="#24A9B4" transform="matrix(1.00, 0.00, -0.00, -1.00, 496.7, 247.0)">G</text><text xml:space="preserve" font-family="ProximaNova-Bold,Proxima Nova" font-weight="bold" font-size="38.0" fill="#24A9B4" transform="matrix(1.00, 0.00, -0.00, -1.00, 524.0, 247.0)">D</text><text xml:space="preserve" font-family="ProximaNova-Bold,Proxima Nova" font-weight="bold" font-size="38.0" fill="#24A9B4" transform="matrix(1.00, 0.00, -0.00, -1.00, 551.3, 247.0)">I</text><text xml:space="preserve" font-family="ProximaNova-Bold,Proxima Nova" font-weight="bold" font-size="38.0" fill="#24A9B4" transform="matrix(1.00, 0.00, -0.00, -1.00, 561.7, 247.0)"> </text><text xml:space="preserve" font-family="ProximaNova-Bold,Proxima Nova" font-weight="bold" font-size="38.0" fill="#24A9B4" transform="matrix(1.00, 0.00, -0.00, -1.00, 571.5, 247.0)">e</text><text xml:space="preserve" font-family="ProximaNova-Bold,Proxima Nova" font-weight="bold" font-size="38.0" fill="#24A9B4" transform="matrix(1.00, 0.00, -0.00, -1.00, 592.5, 247.0)">v</text><text xml:space="preserve" font-family="ProximaNova-Bold,Proxima Nova" font-weight="bold" font-size="38.0" fill="#24A9B4" transform="matrix(1.00, 0.00, -0.00, -1.00, 612.0, 247.0)">e</text><text xml:space="preserve" font-family="ProximaNova-Bold,Proxima Nova" font-weight="bold" font-size="38.0" fill="#24A9B4" transform="matrix(1.00, 0.00, -0.00, -1.00, 633.0, 247.0)">n</text><text xml:space="preserve" font-family="ProximaNova-Bold,Proxima Nova" font-weight="bold" font-size="38.0" fill="#24A9B4" transform="matrix(1.00, 0.00, -0.00, -1.00, 655.0, 247.0)">t</text><text xml:space="preserve" font-family="ProximaNova-Bold,Proxima Nova" font-weight="bold" font-size="38.0" fill="#24A9B4" transform="matrix(1.00, 0.00, -0.00, -1.00, 667.9, 247.0)">,</text><text xml:space="preserve" font-family="ProximaNova-Bold,Proxima Nova" font-weight="bold" font-size="38.0" fill="#24A9B4" transform="matrix(1.00, 0.00, -0.00, -1.00, 677.6, 247.0)"> </text><text xml:space="preserve" font-family="ProximaNova-Bold,Proxima Nova" font-weight="bold" font-size="38.0" fill="#24A9B4" transform="matrix(1.00, 0.00, -0.00, -1.00, 687.3, 247.0)">c</text><text xml:space="preserve" font-family="ProximaNova-Bold,Proxima Nova" font-weight="bold" font-size="38.0" fill="#24A9B4" transform="matrix(1.00, 0.00, -0.00, -1.00, 706.3, 247.0)">r</text><text xml:space="preserve" font-family="ProximaNova-Bold,Proxima Nova" font-weight="bold" font-size="38.0" fill="#24A9B4" transform="matrix(1.00, 0.00, -0.00, -1.00, 720.0, 247.0)">a</text><text xml:space="preserve" font-family="ProximaNova-Bold,Proxima Nova" font-weight="bold" font-size="38.0" fill="#24A9B4" transform="matrix(1.00, 0.00, -0.00, -1.00, 740.6, 247.0)">z</text><text xml:space="preserve" font-family="ProximaNova-Bold,Proxima Nova" font-weight="bold" font-size="38.0" fill="#24A9B4" transform="matrix(1.00, 0.00, -0.00, -1.00, 758.8, 247.0)">y</text><text xml:space="preserve" font-family="ProximaNova-Bold,Proxima Nova" font-weight="bold" font-size="38.0" fill="#24A9B4" transform="matrix(1.00, 0.00, -0.00, -1.00, 778.3, 247.0)"> </text><text xml:space="preserve" font-family="ProximaNova-Bold,Proxima Nova" font-weight="bold" font-size="38.0" fill="#24A9B4" transform="matrix(1.00, 0.00, -0.00, -1.00, 788.1, 247.0)">i</text><text xml:space="preserve" font-family="ProximaNova-Bold,Proxima Nova" font-weight="bold" font-size="38.0" fill="#24A9B4" transform="matrix(1.00, 0.00, -0.00, -1.00, 797.7, 247.0)">t</text><text xml:space="preserve" font-family="ProximaNova-Bold,Proxima Nova" font-weight="bold" font-size="38.0" fill="#24A9B4" transform="matrix(1.00, 0.00, -0.00, -1.00, 810.5, 247.0)"> </text><text xml:space="preserve" font-family="ProximaNova-Bold,Proxima Nova" font-weight="bold" font-size="38.0" fill="#24A9B4" transform="matrix(1.00, 0.00, -0.00, -1.00, 820.3, 247.0)">w</text><text xml:space="preserve" font-family="ProximaNova-Bold,Proxima Nova" font-weight="bold" font-size="38.0" fill="#24A9B4" transform="matrix(1.00, 0.00, -0.00, -1.00, 849.6, 247.0)">a</text><text xml:space="preserve" font-family="ProximaNova-Bold,Proxima Nova" font-weight="bold" font-size="38.0" fill="#24A9B4" transform="matrix(1.00, 0.00, -0.00, -1.00, 870.2, 247.0)">s</text><text xml:space="preserve" font-family="ProximaNova-Bold,Proxima Nova" font-weight="bold" font-size="38.0" fill="#24A9B4" transform="matrix(1.00, 0.00, -0.00, -1.00, 888.3, 247.0)"> </text><text xml:space="preserve" font-family="ProximaNova-Bold,Proxima Nova" font-weight="bold" font-size="38.0" fill="#24A9B4" transform="matrix(1.00, 0.00, -0.00, -1.00, 122.1, 201.0)">o</text><text xml:space="preserve" font-family="ProximaNova-Bold,Proxima Nova" font-weight="bold" font-size="38.0" fill="#24A9B4" transform="matrix(1.00, 0.00, -0.00, -1.00, 144.0, 201.0)">n</text><text xml:space="preserve" font-family="ProximaNova-Bold,Proxima Nova" font-weight="bold" font-size="38.0" fill="#24A9B4" transform="matrix(1.00, 0.00, -0.00, -1.00, 166.0, 201.0)">l</text><text xml:space="preserve" font-family="ProximaNova-Bold,Proxima Nova" font-weight="bold" font-size="38.0" fill="#24A9B4" transform="matrix(1.00, 0.00, -0.00, -1.00, 175.6, 201.0)">y</text><text xml:space="preserve" font-family="ProximaNova-Bold,Proxima Nova" font-weight="bold" font-size="38.0" fill="#24A9B4" transform="matrix(1.00, 0.00, -0.00, -1.00, 195.1, 201.0)"> </text><text xml:space="preserve" font-family="ProximaNova-Bold,Proxima Nova" font-weight="bold" font-size="38.0" fill="#24A9B4" transform="matrix(1.00, 0.00, -0.00, -1.00, 204.8, 201.0)">a</text><text xml:space="preserve" font-family="ProximaNova-Bold,Proxima Nova" font-weight="bold" font-size="38.0" fill="#24A9B4" transform="matrix(1.00, 0.00, -0.00, -1.00, 225.5, 201.0)"> </text><text xml:space="preserve" font-family="ProximaNova-Bold,Proxima Nova" font-weight="bold" font-size="38.0" fill="#24A9B4" transform="matrix(1.00, 0.00, -0.00, -1.00, 235.2, 201.0)">y</text><text xml:space="preserve" font-family="ProximaNova-Bold,Proxima Nova" font-weight="bold" font-size="38.0" fill="#24A9B4" transform="matrix(1.00, 0.00, -0.00, -1.00, 254.7, 201.0)">e</text><text xml:space="preserve" font-family="ProximaNova-Bold,Proxima Nova" font-weight="bold" font-size="38.0" fill="#24A9B4" transform="matrix(1.00, 0.00, -0.00, -1.00, 275.8, 201.0)">a</text><text xml:space="preserve" font-family="ProximaNova-Bold,Proxima Nova" font-weight="bold" font-size="38.0" fill="#24A9B4" transform="matrix(1.00, 0.00, -0.00, -1.00, 296.4, 201.0)">r</text><text xml:space="preserve" font-family="ProximaNova-Bold,Proxima Nova" font-weight="bold" font-size="38.0" fill="#24A9B4" transform="matrix(1.00, 0.00, -0.00, -1.00, 310.1, 201.0)"> </text><text xml:space="preserve" font-family="ProximaNova-Bold,Proxima Nova" font-weight="bold" font-size="38.0" fill="#24A9B4" transform="matrix(1.00, 0.00, -0.00, -1.00, 319.8, 201.0)">a</text><text xml:space="preserve" font-family="ProximaNova-Bold,Proxima Nova" font-weight="bold" font-size="38.0" fill="#24A9B4" transform="matrix(1.00, 0.00, -0.00, -1.00, 340.5, 201.0)">n</text><text xml:space="preserve" font-family="ProximaNova-Bold,Proxima Nova" font-weight="bold" font-size="38.0" fill="#24A9B4" transform="matrix(1.00, 0.00, -0.00, -1.00, 362.5, 201.0)">d</text><text xml:space="preserve" font-family="ProximaNova-Bold,Proxima Nova" font-weight="bold" font-size="38.0" fill="#24A9B4" transform="matrix(1.00, 0.00, -0.00, -1.00, 384.7, 201.0)"> </text><text xml:space="preserve" font-family="ProximaNova-Bold,Proxima Nova" font-weight="bold" font-size="38.0" fill="#24A9B4" transform="matrix(1.00, 0.00, -0.00, -1.00, 394.5, 201.0)">a</text><text xml:space="preserve" font-family="ProximaNova-Bold,Proxima Nova" font-weight="bold" font-size="38.0" fill="#24A9B4" transform="matrix(1.00, 0.00, -0.00, -1.00, 415.1, 201.0)"> </text><text xml:space="preserve" font-family="ProximaNova-Bold,Proxima Nova" font-weight="bold" font-size="38.0" fill="#24A9B4" transform="matrix(1.00, 0.00, -0.00, -1.00, 424.9, 201.0)">h</text><text xml:space="preserve" font-family="ProximaNova-Bold,Proxima Nova" font-weight="bold" font-size="38.0" fill="#24A9B4" transform="matrix(1.00, 0.00, -0.00, -1.00, 446.9, 201.0)">a</text><text xml:space="preserve" font-family="ProximaNova-Bold,Proxima Nova" font-weight="bold" font-size="38.0" fill="#24A9B4" transform="matrix(1.00, 0.00, -0.00, -1.00, 467.6, 201.0)">l</text><text xml:space="preserve" font-family="ProximaNova-Bold,Proxima Nova" font-weight="bold" font-size="38.0" fill="#24A9B4" transform="matrix(1.00, 0.00, -0.00, -1.00, 477.2, 201.0)">f</text><text xml:space="preserve" font-family="ProximaNova-Bold,Proxima Nova" font-weight="bold" font-size="38.0" fill="#24A9B4" transform="matrix(1.00, 0.00, -0.00, -1.00, 489.6, 201.0)"> </text><text xml:space="preserve" font-family="ProximaNova-Bold,Proxima Nova" font-weight="bold" font-size="38.0" fill="#24A9B4" transform="matrix(1.00, 0.00, -0.00, -1.00, 499.4, 201.0)">g</text><text xml:space="preserve" font-family="ProximaNova-Bold,Proxima Nova" font-weight="bold" font-size="38.0" fill="#24A9B4" transform="matrix(1.00, 0.00, -0.00, -1.00, 521.6, 201.0)">o</text><text xml:space="preserve" font-family="ProximaNova-Bold,Proxima Nova" font-weight="bold" font-size="38.0" fill="#24A9B4" transform="matrix(1.00, 0.00, -0.00, -1.00, 543.5, 201.0)"> </text><text xml:space="preserve" font-family="ProximaNova-Bold,Proxima Nova" font-weight="bold" font-size="38.0" fill="#24A9B4" transform="matrix(1.00, 0.00, -0.00, -1.00, 553.2, 201.0)">m</text><text xml:space="preserve" font-family="ProximaNova-Bold,Proxima Nova" font-weight="bold" font-size="38.0" fill="#24A9B4" transform="matrix(1.00, 0.00, -0.00, -1.00, 585.6, 201.0)">a</text><text xml:space="preserve" font-family="ProximaNova-Bold,Proxima Nova" font-weight="bold" font-size="38.0" fill="#24A9B4" transform="matrix(1.00, 0.00, -0.00, -1.00, 606.3, 201.0)">y</text><text xml:space="preserve" font-family="ProximaNova-Bold,Proxima Nova" font-weight="bold" font-size="38.0" fill="#24A9B4" transform="matrix(1.00, 0.00, -0.00, -1.00, 625.8, 201.0)">b</text><text xml:space="preserve" font-family="ProximaNova-Bold,Proxima Nova" font-weight="bold" font-size="38.0" fill="#24A9B4" transform="matrix(1.00, 0.00, -0.00, -1.00, 648.0, 201.0)">e</text><text xml:space="preserve" font-family="ProximaNova-Bold,Proxima Nova" font-weight="bold" font-size="38.0" fill="#24A9B4" transform="matrix(1.00, 0.00, -0.00, -1.00, 667.4, 201.0)">?</text><text xml:space="preserve" font-family="ProximaNova-Bold,Proxima Nova" font-weight="bold" font-size="38.0" fill="#24A9B4" transform="matrix(1.00, 0.00, -0.00, -1.00, 684.7, 201.0)"> </text><text xml:space="preserve" font-family="ProximaNova-Bold,Proxima Nova" font-weight="bold" font-size="38.0" fill="#24A9B4" transform="matrix(1.00, 0.00, -0.00, -1.00, 694.5, 201.0)">I</text><text xml:space="preserve" font-family="ProximaNova-Bold,Proxima Nova" font-weight="bold" font-size="38.0" fill="#24A9B4" transform="matrix(1.00, 0.00, -0.00, -1.00, 704.9, 201.0)"> </text><text xml:space="preserve" font-family="ProximaNova-Bold,Proxima Nova" font-weight="bold" font-size="38.0" fill="#24A9B4" transform="matrix(1.00, 0.00, -0.00, -1.00, 714.7, 201.0)">w</text><text xml:space="preserve" font-family="ProximaNova-Bold,Proxima Nova" font-weight="bold" font-size="38.0" fill="#24A9B4" transform="matrix(1.00, 0.00, -0.00, -1.00, 744.0, 201.0)">a</text><text xml:space="preserve" font-family="ProximaNova-Bold,Proxima Nova" font-weight="bold" font-size="38.0" fill="#24A9B4" transform="matrix(1.00, 0.00, -0.00, -1.00, 764.6, 201.0)">s</text><text xml:space="preserve" font-family="ProximaNova-Bold,Proxima Nova" font-weight="bold" font-size="38.0" fill="#24A9B4" transform="matrix(1.00, 0.00, -0.00, -1.00, 782.7, 201.0)"> </text><text xml:space="preserve" font-family="ProximaNova-Bold,Proxima Nova" font-weight="bold" font-size="38.0" fill="#24A9B4" transform="matrix(1.00, 0.00, -0.00, -1.00, 792.5, 201.0)">s</text><text xml:space="preserve" font-family="ProximaNova-Bold,Proxima Nova" font-weight="bold" font-size="38.0" fill="#24A9B4" transform="matrix(1.00, 0.00, -0.00, -1.00, 810.6, 201.0)">o</text><text xml:space="preserve" font-family="ProximaNova-Bold,Proxima Nova" font-weight="bold" font-size="38.0" fill="#24A9B4" transform="matrix(1.00, 0.00, -0.00, -1.00, 832.5, 201.0)"> </text><text xml:space="preserve" font-family="ProximaNova-Bold,Proxima Nova" font-weight="bold" font-size="38.0" fill="#24A9B4" transform="matrix(1.00, 0.00, -0.00, -1.00, 842.2, 201.0)">s</text><text xml:space="preserve" font-family="ProximaNova-Bold,Proxima Nova" font-weight="bold" font-size="38.0" fill="#24A9B4" transform="matrix(1.00, 0.00, -0.00, -1.00, 860.3, 201.0)">h</text><text xml:space="preserve" font-family="ProximaNova-Bold,Proxima Nova" font-weight="bold" font-size="38.0" fill="#24A9B4" transform="matrix(1.00, 0.00, -0.00, -1.00, 882.4, 201.0)">y</text><text xml:space="preserve" font-family="ProximaNova-Bold,Proxima Nova" font-weight="bold" font-size="38.0" fill="#24A9B4" transform="matrix(1.00, 0.00, -0.00, -1.00, 901.9, 201.0)"> </text><text xml:space="preserve" font-family="ProximaNova-Bold,Proxima Nova" font-weight="bold" font-size="38.0" fill="#24A9B4" transform="matrix(1.00, 0.00, -0.00, -1.00, 133.8, 155.0)">a</text><text xml:space="preserve" font-family="ProximaNova-Bold,Proxima Nova" font-weight="bold" font-size="38.0" fill="#24A9B4" transform="matrix(1.00, 0.00, -0.00, -1.00, 154.5, 155.0)">n</text><text xml:space="preserve" font-family="ProximaNova-Bold,Proxima Nova" font-weight="bold" font-size="38.0" fill="#24A9B4" transform="matrix(1.00, 0.00, -0.00, -1.00, 176.5, 155.0)">d</text><text xml:space="preserve" font-family="ProximaNova-Bold,Proxima Nova" font-weight="bold" font-size="38.0" fill="#24A9B4" transform="matrix(1.00, 0.00, -0.00, -1.00, 198.7, 155.0)"> </text><text xml:space="preserve" font-family="ProximaNova-Bold,Proxima Nova" font-weight="bold" font-size="38.0" fill="#24A9B4" transform="matrix(1.00, 0.00, -0.00, -1.00, 208.5, 155.0)">n</text><text xml:space="preserve" font-family="ProximaNova-Bold,Proxima Nova" font-weight="bold" font-size="38.0" fill="#24A9B4" transform="matrix(1.00, 0.00, -0.00, -1.00, 230.5, 155.0)">e</text><text xml:space="preserve" font-family="ProximaNova-Bold,Proxima Nova" font-weight="bold" font-size="38.0" fill="#24A9B4" transform="matrix(1.00, 0.00, -0.00, -1.00, 251.5, 155.0)">r</text><text xml:space="preserve" font-family="ProximaNova-Bold,Proxima Nova" font-weight="bold" font-size="38.0" fill="#24A9B4" transform="matrix(1.00, 0.00, -0.00, -1.00, 265.2, 155.0)">v</text><text xml:space="preserve" font-family="ProximaNova-Bold,Proxima Nova" font-weight="bold" font-size="38.0" fill="#24A9B4" transform="matrix(1.00, 0.00, -0.00, -1.00, 284.7, 155.0)">o</text><text xml:space="preserve" font-family="ProximaNova-Bold,Proxima Nova" font-weight="bold" font-size="38.0" fill="#24A9B4" transform="matrix(1.00, 0.00, -0.00, -1.00, 306.6, 155.0)">u</text><text xml:space="preserve" font-family="ProximaNova-Bold,Proxima Nova" font-weight="bold" font-size="38.0" fill="#24A9B4" transform="matrix(1.00, 0.00, -0.00, -1.00, 328.6, 155.0)">s</text><text xml:space="preserve" font-family="ProximaNova-Bold,Proxima Nova" font-weight="bold" font-size="38.0" fill="#24A9B4" transform="matrix(1.00, 0.00, -0.00, -1.00, 346.7, 155.0)"> </text><text xml:space="preserve" font-family="ProximaNova-Bold,Proxima Nova" font-weight="bold" font-size="38.0" fill="#24A9B4" transform="matrix(1.00, 0.00, -0.00, -1.00, 356.4, 155.0)">b</text><text xml:space="preserve" font-family="ProximaNova-Bold,Proxima Nova" font-weight="bold" font-size="38.0" fill="#24A9B4" transform="matrix(1.00, 0.00, -0.00, -1.00, 378.7, 155.0)">u</text><text xml:space="preserve" font-family="ProximaNova-Bold,Proxima Nova" font-weight="bold" font-size="38.0" fill="#24A9B4" transform="matrix(1.00, 0.00, -0.00, -1.00, 400.7, 155.0)">t</text><text xml:space="preserve" font-family="ProximaNova-Bold,Proxima Nova" font-weight="bold" font-size="38.0" fill="#24A9B4" transform="matrix(1.00, 0.00, -0.00, -1.00, 413.6, 155.0)"> </text><text xml:space="preserve" font-family="ProximaNova-Bold,Proxima Nova" font-weight="bold" font-size="38.0" fill="#24A9B4" transform="matrix(1.00, 0.00, -0.00, -1.00, 423.3, 155.0)">e</text><text xml:space="preserve" font-family="ProximaNova-Bold,Proxima Nova" font-weight="bold" font-size="38.0" fill="#24A9B4" transform="matrix(1.00, 0.00, -0.00, -1.00, 444.3, 155.0)">v</text><text xml:space="preserve" font-family="ProximaNova-Bold,Proxima Nova" font-weight="bold" font-size="38.0" fill="#24A9B4" transform="matrix(1.00, 0.00, -0.00, -1.00, 463.8, 155.0)">e</text><text xml:space="preserve" font-family="ProximaNova-Bold,Proxima Nova" font-weight="bold" font-size="38.0" fill="#24A9B4" transform="matrix(1.00, 0.00, -0.00, -1.00, 484.8, 155.0)">r</text><text xml:space="preserve" font-family="ProximaNova-Bold,Proxima Nova" font-weight="bold" font-size="38.0" fill="#24A9B4" transform="matrix(1.00, 0.00, -0.00, -1.00, 498.5, 155.0)">y</text><text xml:space="preserve" font-family="ProximaNova-Bold,Proxima Nova" font-weight="bold" font-size="38.0" fill="#24A9B4" transform="matrix(1.00, 0.00, -0.00, -1.00, 518.0, 155.0)">o</text><text xml:space="preserve" font-family="ProximaNova-Bold,Proxima Nova" font-weight="bold" font-size="38.0" fill="#24A9B4" transform="matrix(1.00, 0.00, -0.00, -1.00, 539.9, 155.0)">n</text><text xml:space="preserve" font-family="ProximaNova-Bold,Proxima Nova" font-weight="bold" font-size="38.0" fill="#24A9B4" transform="matrix(1.00, 0.00, -0.00, -1.00, 561.9, 155.0)">e</text><text xml:space="preserve" font-family="ProximaNova-Bold,Proxima Nova" font-weight="bold" font-size="38.0" fill="#24A9B4" transform="matrix(1.00, 0.00, -0.00, -1.00, 582.9, 155.0)"> </text><text xml:space="preserve" font-family="ProximaNova-Bold,Proxima Nova" font-weight="bold" font-size="38.0" fill="#24A9B4" transform="matrix(1.00, 0.00, -0.00, -1.00, 592.7, 155.0)">w</text><text xml:space="preserve" font-family="ProximaNova-Bold,Proxima Nova" font-weight="bold" font-size="38.0" fill="#24A9B4" transform="matrix(1.00, 0.00, -0.00, -1.00, 621.9, 155.0)">a</text><text xml:space="preserve" font-family="ProximaNova-Bold,Proxima Nova" font-weight="bold" font-size="38.0" fill="#24A9B4" transform="matrix(1.00, 0.00, -0.00, -1.00, 642.5, 155.0)">s</text><text xml:space="preserve" font-family="ProximaNova-Bold,Proxima Nova" font-weight="bold" font-size="38.0" fill="#24A9B4" transform="matrix(1.00, 0.00, -0.00, -1.00, 660.7, 155.0)"> </text><text xml:space="preserve" font-family="ProximaNova-Bold,Proxima Nova" font-weight="bold" font-size="38.0" fill="#24A9B4" transform="matrix(1.00, 0.00, -0.00, -1.00, 670.4, 155.0)">s</text><text xml:space="preserve" font-family="ProximaNova-Bold,Proxima Nova" font-weight="bold" font-size="38.0" fill="#24A9B4" transform="matrix(1.00, 0.00, -0.00, -1.00, 688.6, 155.0)">o</text><text xml:space="preserve" font-family="ProximaNova-Bold,Proxima Nova" font-weight="bold" font-size="38.0" fill="#24A9B4" transform="matrix(1.00, 0.00, -0.00, -1.00, 710.4, 155.0)"> </text><text xml:space="preserve" font-family="ProximaNova-Bold,Proxima Nova" font-weight="bold" font-size="38.0" fill="#24A9B4" transform="matrix(1.00, 0.00, -0.00, -1.00, 720.2, 155.0)">f</text><text xml:space="preserve" font-family="ProximaNova-Bold,Proxima Nova" font-weight="bold" font-size="38.0" fill="#24A9B4" transform="matrix(1.00, 0.00, -0.00, -1.00, 732.6, 155.0)">r</text><text xml:space="preserve" font-family="ProximaNova-Bold,Proxima Nova" font-weight="bold" font-size="38.0" fill="#24A9B4" transform="matrix(1.00, 0.00, -0.00, -1.00, 746.3, 155.0)">i</text><text xml:space="preserve" font-family="ProximaNova-Bold,Proxima Nova" font-weight="bold" font-size="38.0" fill="#24A9B4" transform="matrix(1.00, 0.00, -0.00, -1.00, 755.9, 155.0)">e</text><text xml:space="preserve" font-family="ProximaNova-Bold,Proxima Nova" font-weight="bold" font-size="38.0" fill="#24A9B4" transform="matrix(1.00, 0.00, -0.00, -1.00, 776.9, 155.0)">n</text><text xml:space="preserve" font-family="ProximaNova-Bold,Proxima Nova" font-weight="bold" font-size="38.0" fill="#24A9B4" transform="matrix(1.00, 0.00, -0.00, -1.00, 798.9, 155.0)">d</text><text xml:space="preserve" font-family="ProximaNova-Bold,Proxima Nova" font-weight="bold" font-size="38.0" fill="#24A9B4" transform="matrix(1.00, 0.00, -0.00, -1.00, 821.2, 155.0)">l</text><text xml:space="preserve" font-family="ProximaNova-Bold,Proxima Nova" font-weight="bold" font-size="38.0" fill="#24A9B4" transform="matrix(1.00, 0.00, -0.00, -1.00, 830.8, 155.0)">y</text><text xml:space="preserve" font-family="ProximaNova-Bold,Proxima Nova" font-weight="bold" font-size="38.0" fill="#24A9B4" transform="matrix(1.00, 0.00, -0.00, -1.00, 848.2, 155.0)">,</text><text xml:space="preserve" font-family="ProximaNova-Bold,Proxima Nova" font-weight="bold" font-size="38.0" fill="#24A9B4" transform="matrix(1.00, 0.00, -0.00, -1.00, 857.9, 155.0)"> </text><text xml:space="preserve" font-family="ProximaNova-Bold,Proxima Nova" font-weight="bold" font-size="38.0" fill="#24A9B4" transform="matrix(1.00, 0.00, -0.00, -1.00, 867.7, 155.0)">i</text><text xml:space="preserve" font-family="ProximaNova-Bold,Proxima Nova" font-weight="bold" font-size="38.0" fill="#24A9B4" transform="matrix(1.00, 0.00, -0.00, -1.00, 877.3, 155.0)">t</text><text xml:space="preserve" font-family="ProximaNova-Bold,Proxima Nova" font-weight="bold" font-size="38.0" fill="#24A9B4" transform="matrix(1.00, 0.00, -0.00, -1.00, 890.2, 155.0)"> </text><text xml:space="preserve" font-family="ProximaNova-Bold,Proxima Nova" font-weight="bold" font-size="38.0" fill="#24A9B4" transform="matrix(1.00, 0.00, -0.00, -1.00, 118.2, 109.0)">w</text><text xml:space="preserve" font-family="ProximaNova-Bold,Proxima Nova" font-weight="bold" font-size="38.0" fill="#24A9B4" transform="matrix(1.00, 0.00, -0.00, -1.00, 147.5, 109.0)">a</text><text xml:space="preserve" font-family="ProximaNova-Bold,Proxima Nova" font-weight="bold" font-size="38.0" fill="#24A9B4" transform="matrix(1.00, 0.00, -0.00, -1.00, 168.1, 109.0)">s</text><text xml:space="preserve" font-family="ProximaNova-Bold,Proxima Nova" font-weight="bold" font-size="38.0" fill="#24A9B4" transform="matrix(1.00, 0.00, -0.00, -1.00, 186.2, 109.0)"> </text><text xml:space="preserve" font-family="ProximaNova-Bold,Proxima Nova" font-weight="bold" font-size="38.0" fill="#24A9B4" transform="matrix(1.00, 0.00, -0.00, -1.00, 196.0, 109.0)">a</text><text xml:space="preserve" font-family="ProximaNova-Bold,Proxima Nova" font-weight="bold" font-size="38.0" fill="#24A9B4" transform="matrix(1.00, 0.00, -0.00, -1.00, 216.6, 109.0)">n</text><text xml:space="preserve" font-family="ProximaNova-Bold,Proxima Nova" font-weight="bold" font-size="38.0" fill="#24A9B4" transform="matrix(1.00, 0.00, -0.00, -1.00, 238.6, 109.0)"> </text><text xml:space="preserve" font-family="ProximaNova-Bold,Proxima Nova" font-weight="bold" font-size="38.0" fill="#24A9B4" transform="matrix(1.00, 0.00, -0.00, -1.00, 248.4, 109.0)">a</text><text xml:space="preserve" font-family="ProximaNova-Bold,Proxima Nova" font-weight="bold" font-size="38.0" fill="#24A9B4" transform="matrix(1.00, 0.00, -0.00, -1.00, 269.0, 109.0)">w</text><text xml:space="preserve" font-family="ProximaNova-Bold,Proxima Nova" font-weight="bold" font-size="38.0" fill="#24A9B4" transform="matrix(1.00, 0.00, -0.00, -1.00, 298.3, 109.0)">e</text><text xml:space="preserve" font-family="ProximaNova-Bold,Proxima Nova" font-weight="bold" font-size="38.0" fill="#24A9B4" transform="matrix(1.00, 0.00, -0.00, -1.00, 319.3, 109.0)">s</text><text xml:space="preserve" font-family="ProximaNova-Bold,Proxima Nova" font-weight="bold" font-size="38.0" fill="#24A9B4" transform="matrix(1.00, 0.00, -0.00, -1.00, 337.4, 109.0)">o</text><text xml:space="preserve" font-family="ProximaNova-Bold,Proxima Nova" font-weight="bold" font-size="38.0" fill="#24A9B4" transform="matrix(1.00, 0.00, -0.00, -1.00, 359.3, 109.0)">m</text><text xml:space="preserve" font-family="ProximaNova-Bold,Proxima Nova" font-weight="bold" font-size="38.0" fill="#24A9B4" transform="matrix(1.00, 0.00, -0.00, -1.00, 391.7, 109.0)">e</text><text xml:space="preserve" font-family="ProximaNova-Bold,Proxima Nova" font-weight="bold" font-size="38.0" fill="#24A9B4" transform="matrix(1.00, 0.00, -0.00, -1.00, 412.7, 109.0)"> </text><text xml:space="preserve" font-family="ProximaNova-Bold,Proxima Nova" font-weight="bold" font-size="38.0" fill="#24A9B4" transform="matrix(1.00, 0.00, -0.00, -1.00, 422.5, 109.0)">e</text><text xml:space="preserve" font-family="ProximaNova-Bold,Proxima Nova" font-weight="bold" font-size="38.0" fill="#24A9B4" transform="matrix(1.00, 0.00, -0.00, -1.00, 443.5, 109.0)">x</text><text xml:space="preserve" font-family="ProximaNova-Bold,Proxima Nova" font-weight="bold" font-size="38.0" fill="#24A9B4" transform="matrix(1.00, 0.00, -0.00, -1.00, 462.6, 109.0)">p</text><text xml:space="preserve" font-family="ProximaNova-Bold,Proxima Nova" font-weight="bold" font-size="38.0" fill="#24A9B4" transform="matrix(1.00, 0.00, -0.00, -1.00, 484.8, 109.0)">e</text><text xml:space="preserve" font-family="ProximaNova-Bold,Proxima Nova" font-weight="bold" font-size="38.0" fill="#24A9B4" transform="matrix(1.00, 0.00, -0.00, -1.00, 505.8, 109.0)">r</text><text xml:space="preserve" font-family="ProximaNova-Bold,Proxima Nova" font-weight="bold" font-size="38.0" fill="#24A9B4" transform="matrix(1.00, 0.00, -0.00, -1.00, 519.5, 109.0)">i</text><text xml:space="preserve" font-family="ProximaNova-Bold,Proxima Nova" font-weight="bold" font-size="38.0" fill="#24A9B4" transform="matrix(1.00, 0.00, -0.00, -1.00, 529.1, 109.0)">e</text><text xml:space="preserve" font-family="ProximaNova-Bold,Proxima Nova" font-weight="bold" font-size="38.0" fill="#24A9B4" transform="matrix(1.00, 0.00, -0.00, -1.00, 550.1, 109.0)">n</text><text xml:space="preserve" font-family="ProximaNova-Bold,Proxima Nova" font-weight="bold" font-size="38.0" fill="#24A9B4" transform="matrix(1.00, 0.00, -0.00, -1.00, 572.1, 109.0)">c</text><text xml:space="preserve" font-family="ProximaNova-Bold,Proxima Nova" font-weight="bold" font-size="38.0" fill="#24A9B4" transform="matrix(1.00, 0.00, -0.00, -1.00, 591.1, 109.0)">e</text><text xml:space="preserve" font-family="ProximaNova-Bold,Proxima Nova" font-weight="bold" font-size="38.0" fill="#24A9B4" transform="matrix(1.00, 0.00, -0.00, -1.00, 612.1, 109.0)"> </text><text xml:space="preserve" font-family="ProximaNova-Bold,Proxima Nova" font-weight="bold" font-size="38.0" fill="#24A9B4" transform="matrix(1.00, 0.00, -0.00, -1.00, 621.9, 109.0)">a</text><text xml:space="preserve" font-family="ProximaNova-Bold,Proxima Nova" font-weight="bold" font-size="38.0" fill="#24A9B4" transform="matrix(1.00, 0.00, -0.00, -1.00, 642.5, 109.0)">n</text><text xml:space="preserve" font-family="ProximaNova-Bold,Proxima Nova" font-weight="bold" font-size="38.0" fill="#24A9B4" transform="matrix(1.00, 0.00, -0.00, -1.00, 664.5, 109.0)">d</text><text xml:space="preserve" font-family="ProximaNova-Bold,Proxima Nova" font-weight="bold" font-size="38.0" fill="#24A9B4" transform="matrix(1.00, 0.00, -0.00, -1.00, 686.8, 109.0)"> </text><text xml:space="preserve" font-family="ProximaNova-Bold,Proxima Nova" font-weight="bold" font-size="38.0" fill="#24A9B4" transform="matrix(1.00, 0.00, -0.00, -1.00, 696.5, 109.0)">m</text><text xml:space="preserve" font-family="ProximaNova-Bold,Proxima Nova" font-weight="bold" font-size="38.0" fill="#24A9B4" transform="matrix(1.00, 0.00, -0.00, -1.00, 728.9, 109.0)">a</text><text xml:space="preserve" font-family="ProximaNova-Bold,Proxima Nova" font-weight="bold" font-size="38.0" fill="#24A9B4" transform="matrix(1.00, 0.00, -0.00, -1.00, 749.6, 109.0)">d</text><text xml:space="preserve" font-family="ProximaNova-Bold,Proxima Nova" font-weight="bold" font-size="38.0" fill="#24A9B4" transform="matrix(1.00, 0.00, -0.00, -1.00, 771.8, 109.0)">e</text><text xml:space="preserve" font-family="ProximaNova-Bold,Proxima Nova" font-weight="bold" font-size="38.0" fill="#24A9B4" transform="matrix(1.00, 0.00, -0.00, -1.00, 792.9, 109.0)"> </text><text xml:space="preserve" font-family="ProximaNova-Bold,Proxima Nova" font-weight="bold" font-size="38.0" fill="#24A9B4" transform="matrix(1.00, 0.00, -0.00, -1.00, 802.6, 109.0)">m</text><text xml:space="preserve" font-family="ProximaNova-Bold,Proxima Nova" font-weight="bold" font-size="38.0" fill="#24A9B4" transform="matrix(1.00, 0.00, -0.00, -1.00, 835.0, 109.0)">e</text><text xml:space="preserve" font-family="ProximaNova-Bold,Proxima Nova" font-weight="bold" font-size="38.0" fill="#24A9B4" transform="matrix(1.00, 0.00, -0.00, -1.00, 856.1, 109.0)"> </text><text xml:space="preserve" font-family="ProximaNova-Bold,Proxima Nova" font-weight="bold" font-size="38.0" fill="#24A9B4" transform="matrix(1.00, 0.00, -0.00, -1.00, 865.8, 109.0)">s</text><text xml:space="preserve" font-family="ProximaNova-Bold,Proxima Nova" font-weight="bold" font-size="38.0" fill="#24A9B4" transform="matrix(1.00, 0.00, -0.00, -1.00, 883.9, 109.0)">o</text><text xml:space="preserve" font-family="ProximaNova-Bold,Proxima Nova" font-weight="bold" font-size="38.0" fill="#24A9B4" transform="matrix(1.00, 0.00, -0.00, -1.00, 905.8, 109.0)"> </text><text xml:space="preserve" font-family="ProximaNova-Bold,Proxima Nova" font-weight="bold" font-size="38.0" fill="#24A9B4" transform="matrix(1.00, 0.00, -0.00, -1.00, 223.7, 63.0)">e</text><text xml:space="preserve" font-family="ProximaNova-Bold,Proxima Nova" font-weight="bold" font-size="38.0" fill="#24A9B4" transform="matrix(1.00, 0.00, -0.00, -1.00, 244.7, 63.0)">x</text><text xml:space="preserve" font-family="ProximaNova-Bold,Proxima Nova" font-weight="bold" font-size="38.0" fill="#24A9B4" transform="matrix(1.00, 0.00, -0.00, -1.00, 262.6, 63.0)">c</text><text xml:space="preserve" font-family="ProximaNova-Bold,Proxima Nova" font-weight="bold" font-size="38.0" fill="#24A9B4" transform="matrix(1.00, 0.00, -0.00, -1.00, 281.6, 63.0)">i</text><text xml:space="preserve" font-family="ProximaNova-Bold,Proxima Nova" font-weight="bold" font-size="38.0" fill="#24A9B4" transform="matrix(1.00, 0.00, -0.00, -1.00, 291.2, 63.0)">t</text><text xml:space="preserve" font-family="ProximaNova-Bold,Proxima Nova" font-weight="bold" font-size="38.0" fill="#24A9B4" transform="matrix(1.00, 0.00, -0.00, -1.00, 304.0, 63.0)">e</text><text xml:space="preserve" font-family="ProximaNova-Bold,Proxima Nova" font-weight="bold" font-size="38.0" fill="#24A9B4" transform="matrix(1.00, 0.00, -0.00, -1.00, 325.0, 63.0)">d</text><text xml:space="preserve" font-family="ProximaNova-Bold,Proxima Nova" font-weight="bold" font-size="38.0" fill="#24A9B4" transform="matrix(1.00, 0.00, -0.00, -1.00, 347.3, 63.0)"> </text><text xml:space="preserve" font-family="ProximaNova-Bold,Proxima Nova" font-weight="bold" font-size="38.0" fill="#24A9B4" transform="matrix(1.00, 0.00, -0.00, -1.00, 357.1, 63.0)">t</text><text xml:space="preserve" font-family="ProximaNova-Bold,Proxima Nova" font-weight="bold" font-size="38.0" fill="#24A9B4" transform="matrix(1.00, 0.00, -0.00, -1.00, 369.9, 63.0)">o</text><text xml:space="preserve" font-family="ProximaNova-Bold,Proxima Nova" font-weight="bold" font-size="38.0" fill="#24A9B4" transform="matrix(1.00, 0.00, -0.00, -1.00, 391.8, 63.0)"> </text><text xml:space="preserve" font-family="ProximaNova-Bold,Proxima Nova" font-weight="bold" font-size="38.0" fill="#24A9B4" transform="matrix(1.00, 0.00, -0.00, -1.00, 401.5, 63.0)">c</text><text xml:space="preserve" font-family="ProximaNova-Bold,Proxima Nova" font-weight="bold" font-size="38.0" fill="#24A9B4" transform="matrix(1.00, 0.00, -0.00, -1.00, 420.5, 63.0)">o</text><text xml:space="preserve" font-family="ProximaNova-Bold,Proxima Nova" font-weight="bold" font-size="38.0" fill="#24A9B4" transform="matrix(1.00, 0.00, -0.00, -1.00, 442.3, 63.0)">m</text><text xml:space="preserve" font-family="ProximaNova-Bold,Proxima Nova" font-weight="bold" font-size="38.0" fill="#24A9B4" transform="matrix(1.00, 0.00, -0.00, -1.00, 474.8, 63.0)">e</text><text xml:space="preserve" font-family="ProximaNova-Bold,Proxima Nova" font-weight="bold" font-size="38.0" fill="#24A9B4" transform="matrix(1.00, 0.00, -0.00, -1.00, 495.8, 63.0)"> </text><text xml:space="preserve" font-family="ProximaNova-Bold,Proxima Nova" font-weight="bold" font-size="38.0" fill="#24A9B4" transform="matrix(1.00, 0.00, -0.00, -1.00, 505.5, 63.0)">t</text><text xml:space="preserve" font-family="ProximaNova-Bold,Proxima Nova" font-weight="bold" font-size="38.0" fill="#24A9B4" transform="matrix(1.00, 0.00, -0.00, -1.00, 518.4, 63.0)">o</text><text xml:space="preserve" font-family="ProximaNova-Bold,Proxima Nova" font-weight="bold" font-size="38.0" fill="#24A9B4" transform="matrix(1.00, 0.00, -0.00, -1.00, 540.2, 63.0)"> </text><text xml:space="preserve" font-family="ProximaNova-Bold,Proxima Nova" font-weight="bold" font-size="38.0" fill="#24A9B4" transform="matrix(1.00, 0.00, -0.00, -1.00, 550.0, 63.0)">f</text><text xml:space="preserve" font-family="ProximaNova-Bold,Proxima Nova" font-weight="bold" font-size="38.0" fill="#24A9B4" transform="matrix(1.00, 0.00, -0.00, -1.00, 562.4, 63.0)">u</text><text xml:space="preserve" font-family="ProximaNova-Bold,Proxima Nova" font-weight="bold" font-size="38.0" fill="#24A9B4" transform="matrix(1.00, 0.00, -0.00, -1.00, 584.4, 63.0)">t</text><text xml:space="preserve" font-family="ProximaNova-Bold,Proxima Nova" font-weight="bold" font-size="38.0" fill="#24A9B4" transform="matrix(1.00, 0.00, -0.00, -1.00, 597.3, 63.0)">u</text><text xml:space="preserve" font-family="ProximaNova-Bold,Proxima Nova" font-weight="bold" font-size="38.0" fill="#24A9B4" transform="matrix(1.00, 0.00, -0.00, -1.00, 619.3, 63.0)">r</text><text xml:space="preserve" font-family="ProximaNova-Bold,Proxima Nova" font-weight="bold" font-size="38.0" fill="#24A9B4" transform="matrix(1.00, 0.00, -0.00, -1.00, 633.0, 63.0)">e</text><text xml:space="preserve" font-family="ProximaNova-Bold,Proxima Nova" font-weight="bold" font-size="38.0" fill="#24A9B4" transform="matrix(1.00, 0.00, -0.00, -1.00, 654.0, 63.0)"> </text><text xml:space="preserve" font-family="ProximaNova-Bold,Proxima Nova" font-weight="bold" font-size="38.0" fill="#24A9B4" transform="matrix(1.00, 0.00, -0.00, -1.00, 663.7, 63.0)">e</text><text xml:space="preserve" font-family="ProximaNova-Bold,Proxima Nova" font-weight="bold" font-size="38.0" fill="#24A9B4" transform="matrix(1.00, 0.00, -0.00, -1.00, 684.7, 63.0)">v</text><text xml:space="preserve" font-family="ProximaNova-Bold,Proxima Nova" font-weight="bold" font-size="38.0" fill="#24A9B4" transform="matrix(1.00, 0.00, -0.00, -1.00, 704.2, 63.0)">e</text><text xml:space="preserve" font-family="ProximaNova-Bold,Proxima Nova" font-weight="bold" font-size="38.0" fill="#24A9B4" transform="matrix(1.00, 0.00, -0.00, -1.00, 725.3, 63.0)">n</text><text xml:space="preserve" font-family="ProximaNova-Bold,Proxima Nova" font-weight="bold" font-size="38.0" fill="#24A9B4" transform="matrix(1.00, 0.00, -0.00, -1.00, 747.3, 63.0)">t</text><text xml:space="preserve" font-family="ProximaNova-Bold,Proxima Nova" font-weight="bold" font-size="38.0" fill="#24A9B4" transform="matrix(1.00, 0.00, -0.00, -1.00, 760.1, 63.0)">s</text><text xml:space="preserve" font-family="ProximaNova-Bold,Proxima Nova" font-weight="bold" font-size="38.0" fill="#24A9B4" transform="matrix(1.00, 0.00, -0.00, -1.00, 778.2, 63.0)">.</text><text xml:space="preserve" font-family="ProximaNova-Bold,Proxima Nova" font-weight="bold" font-size="38.0" fill="#24A9B4" transform="matrix(1.00, 0.00, -0.00, -1.00, 784.8, 63.0)">"</text><image xlink:href="../../106D0658-1138-460B-8B56-8F79540C461F/assets/845A3F64C221B8DF94217C0C1CE002C2.jpeg" width="3264.00" height="2448.00" transform="matrix(0.15, 0.00, -0.00, -0.15, 261.6, 700.7)"></image></g></svg>