<?xml version="1.0" encoding="UTF-8" standalone="no"?><svg xmlns="http://www.w3.org/2000/svg" xmlns:xlink="http://www.w3.org/1999/xlink" clip-rule="evenodd" stroke-miterlimit="10" viewBox="0 0 1024 768"><desc>SVG generated by Keynote</desc><defs></defs><g transform="matrix(1.00, 0.00, -0.00, -1.00, 0.0, 768.0)"><path d="M 0.0 768.0 L 1024.0 768.0 L 1024.0 0.0 L 0.0 0.0 Z M 0.0 768.0 " fill="#FEFFFF"></path><text xml:space="preserve" font-family="ProximaNova-Bold,Proxima Nova" font-weight="bold" font-size="33.9" fill="#24A9B4" transform="matrix(1.00, 0.00, -0.00, -1.00, 185.2, 343.7)">O</text><text xml:space="preserve" font-family="ProximaNova-Bold,Proxima Nova" font-weight="bold" font-size="33.9" fill="#24A9B4" transform="matrix(1.00, 0.00, -0.00, -1.00, 211.1, 343.7)">n</text><text xml:space="preserve" font-family="ProximaNova-Bold,Proxima Nova" font-weight="bold" font-size="33.9" fill="#24A9B4" transform="matrix(1.00, 0.00, -0.00, -1.00, 230.7, 343.7)">e</text><text xml:space="preserve" font-family="ProximaNova-Bold,Proxima Nova" font-weight="bold" font-size="33.9" fill="#24A9B4" transform="matrix(1.00, 0.00, -0.00, -1.00, 249.5, 343.7)"> </text><text xml:space="preserve" font-family="ProximaNova-Bold,Proxima Nova" font-weight="bold" font-size="33.9" fill="#24A9B4" transform="matrix(1.00, 0.00, -0.00, -1.00, 258.2, 343.7)">m</text><text xml:space="preserve" font-family="ProximaNova-Bold,Proxima Nova" font-weight="bold" font-size="33.9" fill="#24A9B4" transform="matrix(1.00, 0.00, -0.00, -1.00, 287.1, 343.7)">o</text><text xml:space="preserve" font-family="ProximaNova-Bold,Proxima Nova" font-weight="bold" font-size="33.9" fill="#24A9B4" transform="matrix(1.00, 0.00, -0.00, -1.00, 306.6, 343.7)">r</text><text xml:space="preserve" font-family="ProximaNova-Bold,Proxima Nova" font-weight="bold" font-size="33.9" fill="#24A9B4" transform="matrix(1.00, 0.00, -0.00, -1.00, 318.7, 343.7)">e</text><text xml:space="preserve" font-family="ProximaNova-Bold,Proxima Nova" font-weight="bold" font-size="33.9" fill="#24A9B4" transform="matrix(1.00, 0.00, -0.00, -1.00, 337.5, 343.7)"> </text><text xml:space="preserve" font-family="ProximaNova-Bold,Proxima Nova" font-weight="bold" font-size="33.9" fill="#24A9B4" transform="matrix(1.00, 0.00, -0.00, -1.00, 346.2, 343.7)">h</text><text xml:space="preserve" font-family="ProximaNova-Bold,Proxima Nova" font-weight="bold" font-size="33.9" fill="#24A9B4" transform="matrix(1.00, 0.00, -0.00, -1.00, 365.8, 343.7)">u</text><text xml:space="preserve" font-family="ProximaNova-Bold,Proxima Nova" font-weight="bold" font-size="33.9" fill="#24A9B4" transform="matrix(1.00, 0.00, -0.00, -1.00, 385.5, 343.7)">g</text><text xml:space="preserve" font-family="ProximaNova-Bold,Proxima Nova" font-weight="bold" font-size="33.9" fill="#24A9B4" transform="matrix(1.00, 0.00, -0.00, -1.00, 405.3, 343.7)">e</text><text xml:space="preserve" font-family="ProximaNova-Bold,Proxima Nova" font-weight="bold" font-size="33.9" fill="#24A9B4" transform="matrix(1.00, 0.00, -0.00, -1.00, 424.0, 343.7)"> </text><text xml:space="preserve" font-family="ProximaNova-Bold,Proxima Nova" font-weight="bold" font-size="33.9" fill="#24A9B4" transform="matrix(1.00, 0.00, -0.00, -1.00, 432.7, 343.7)">s</text><text xml:space="preserve" font-family="ProximaNova-Bold,Proxima Nova" font-weight="bold" font-size="33.9" fill="#24A9B4" transform="matrix(1.00, 0.00, -0.00, -1.00, 448.9, 343.7)">h</text><text xml:space="preserve" font-family="ProximaNova-Bold,Proxima Nova" font-weight="bold" font-size="33.9" fill="#24A9B4" transform="matrix(1.00, 0.00, -0.00, -1.00, 468.5, 343.7)">o</text><text xml:space="preserve" font-family="ProximaNova-Bold,Proxima Nova" font-weight="bold" font-size="33.9" fill="#24A9B4" transform="matrix(1.00, 0.00, -0.00, -1.00, 488.0, 343.7)">u</text><text xml:space="preserve" font-family="ProximaNova-Bold,Proxima Nova" font-weight="bold" font-size="33.9" fill="#24A9B4" transform="matrix(1.00, 0.00, -0.00, -1.00, 507.6, 343.7)">t</text><text xml:space="preserve" font-family="ProximaNova-Bold,Proxima Nova" font-weight="bold" font-size="33.9" fill="#24A9B4" transform="matrix(1.00, 0.00, -0.00, -1.00, 519.1, 343.7)"> </text><text xml:space="preserve" font-family="ProximaNova-Bold,Proxima Nova" font-weight="bold" font-size="33.9" fill="#24A9B4" transform="matrix(1.00, 0.00, -0.00, -1.00, 527.8, 343.7)">o</text><text xml:space="preserve" font-family="ProximaNova-Bold,Proxima Nova" font-weight="bold" font-size="33.9" fill="#24A9B4" transform="matrix(1.00, 0.00, -0.00, -1.00, 547.3, 343.7)">u</text><text xml:space="preserve" font-family="ProximaNova-Bold,Proxima Nova" font-weight="bold" font-size="33.9" fill="#24A9B4" transform="matrix(1.00, 0.00, -0.00, -1.00, 566.9, 343.7)">t</text><text xml:space="preserve" font-family="ProximaNova-Bold,Proxima Nova" font-weight="bold" font-size="33.9" fill="#24A9B4" transform="matrix(1.00, 0.00, -0.00, -1.00, 578.3, 343.7)"> </text><text xml:space="preserve" font-family="ProximaNova-Bold,Proxima Nova" font-weight="bold" font-size="33.9" fill="#24A9B4" transform="matrix(1.00, 0.00, -0.00, -1.00, 587.0, 343.7)">t</text><text xml:space="preserve" font-family="ProximaNova-Bold,Proxima Nova" font-weight="bold" font-size="33.9" fill="#24A9B4" transform="matrix(1.00, 0.00, -0.00, -1.00, 598.5, 343.7)">o</text><text xml:space="preserve" font-family="ProximaNova-Bold,Proxima Nova" font-weight="bold" font-size="33.9" fill="#24A9B4" transform="matrix(1.00, 0.00, -0.00, -1.00, 618.0, 343.7)"> </text><text xml:space="preserve" font-family="ProximaNova-Bold,Proxima Nova" font-weight="bold" font-size="33.9" fill="#24A9B4" transform="matrix(1.00, 0.00, -0.00, -1.00, 626.7, 343.7)">o</text><text xml:space="preserve" font-family="ProximaNova-Bold,Proxima Nova" font-weight="bold" font-size="33.9" fill="#24A9B4" transform="matrix(1.00, 0.00, -0.00, -1.00, 646.2, 343.7)">u</text><text xml:space="preserve" font-family="ProximaNova-Bold,Proxima Nova" font-weight="bold" font-size="33.9" fill="#24A9B4" transform="matrix(1.00, 0.00, -0.00, -1.00, 665.8, 343.7)">r</text><text xml:space="preserve" font-family="ProximaNova-Bold,Proxima Nova" font-weight="bold" font-size="33.9" fill="#24A9B4" transform="matrix(1.00, 0.00, -0.00, -1.00, 678.0, 343.7)"> </text><text xml:space="preserve" font-family="ProximaNova-Bold,Proxima Nova" font-weight="bold" font-size="33.9" fill="#24A9B4" transform="matrix(1.00, 0.00, -0.00, -1.00, 686.7, 343.7)">m</text><text xml:space="preserve" font-family="ProximaNova-Bold,Proxima Nova" font-weight="bold" font-size="33.9" fill="#24A9B4" transform="matrix(1.00, 0.00, -0.00, -1.00, 715.6, 343.7)">e</text><text xml:space="preserve" font-family="ProximaNova-Bold,Proxima Nova" font-weight="bold" font-size="33.9" fill="#24A9B4" transform="matrix(1.00, 0.00, -0.00, -1.00, 734.3, 343.7)">m</text><text xml:space="preserve" font-family="ProximaNova-Bold,Proxima Nova" font-weight="bold" font-size="33.9" fill="#24A9B4" transform="matrix(1.00, 0.00, -0.00, -1.00, 763.2, 343.7)">b</text><text xml:space="preserve" font-family="ProximaNova-Bold,Proxima Nova" font-weight="bold" font-size="33.9" fill="#24A9B4" transform="matrix(1.00, 0.00, -0.00, -1.00, 783.1, 343.7)">e</text><text xml:space="preserve" font-family="ProximaNova-Bold,Proxima Nova" font-weight="bold" font-size="33.9" fill="#24A9B4" transform="matrix(1.00, 0.00, -0.00, -1.00, 801.8, 343.7)">r</text><text xml:space="preserve" font-family="ProximaNova-Bold,Proxima Nova" font-weight="bold" font-size="33.9" fill="#24A9B4" transform="matrix(1.00, 0.00, -0.00, -1.00, 814.0, 343.7)">s</text><text xml:space="preserve" font-family="ProximaNova-Bold,Proxima Nova" font-weight="bold" font-size="33.9" fill="#24A9B4" transform="matrix(1.00, 0.00, -0.00, -1.00, 830.2, 343.7)">,</text><text xml:space="preserve" font-family="ProximaNova-Bold,Proxima Nova" font-weight="bold" font-size="33.9" fill="#24A9B4" transform="matrix(1.00, 0.00, -0.00, -1.00, 838.8, 343.7)"> </text><text xml:space="preserve" font-family="ProximaNova-Bold,Proxima Nova" font-weight="bold" font-size="33.9" fill="#24A9B4" transform="matrix(1.00, 0.00, -0.00, -1.00, 108.3, 302.7)">i</text><text xml:space="preserve" font-family="ProximaNova-Bold,Proxima Nova" font-weight="bold" font-size="33.9" fill="#24A9B4" transform="matrix(1.00, 0.00, -0.00, -1.00, 116.9, 302.7)">n</text><text xml:space="preserve" font-family="ProximaNova-Bold,Proxima Nova" font-weight="bold" font-size="33.9" fill="#24A9B4" transform="matrix(1.00, 0.00, -0.00, -1.00, 136.5, 302.7)">s</text><text xml:space="preserve" font-family="ProximaNova-Bold,Proxima Nova" font-weight="bold" font-size="33.9" fill="#24A9B4" transform="matrix(1.00, 0.00, -0.00, -1.00, 152.7, 302.7)">t</text><text xml:space="preserve" font-family="ProximaNova-Bold,Proxima Nova" font-weight="bold" font-size="33.9" fill="#24A9B4" transform="matrix(1.00, 0.00, -0.00, -1.00, 164.1, 302.7)">r</text><text xml:space="preserve" font-family="ProximaNova-Bold,Proxima Nova" font-weight="bold" font-size="33.9" fill="#24A9B4" transform="matrix(1.00, 0.00, -0.00, -1.00, 176.3, 302.7)">u</text><text xml:space="preserve" font-family="ProximaNova-Bold,Proxima Nova" font-weight="bold" font-size="33.9" fill="#24A9B4" transform="matrix(1.00, 0.00, -0.00, -1.00, 195.9, 302.7)">c</text><text xml:space="preserve" font-family="ProximaNova-Bold,Proxima Nova" font-weight="bold" font-size="33.9" fill="#24A9B4" transform="matrix(1.00, 0.00, -0.00, -1.00, 212.8, 302.7)">t</text><text xml:space="preserve" font-family="ProximaNova-Bold,Proxima Nova" font-weight="bold" font-size="33.9" fill="#24A9B4" transform="matrix(1.00, 0.00, -0.00, -1.00, 224.3, 302.7)">o</text><text xml:space="preserve" font-family="ProximaNova-Bold,Proxima Nova" font-weight="bold" font-size="33.9" fill="#24A9B4" transform="matrix(1.00, 0.00, -0.00, -1.00, 243.8, 302.7)">r</text><text xml:space="preserve" font-family="ProximaNova-Bold,Proxima Nova" font-weight="bold" font-size="33.9" fill="#24A9B4" transform="matrix(1.00, 0.00, -0.00, -1.00, 256.0, 302.7)">s</text><text xml:space="preserve" font-family="ProximaNova-Bold,Proxima Nova" font-weight="bold" font-size="33.9" fill="#24A9B4" transform="matrix(1.00, 0.00, -0.00, -1.00, 272.1, 302.7)">,</text><text xml:space="preserve" font-family="ProximaNova-Bold,Proxima Nova" font-weight="bold" font-size="33.9" fill="#24A9B4" transform="matrix(1.00, 0.00, -0.00, -1.00, 280.8, 302.7)"> </text><text xml:space="preserve" font-family="ProximaNova-Bold,Proxima Nova" font-weight="bold" font-size="33.9" fill="#24A9B4" transform="matrix(1.00, 0.00, -0.00, -1.00, 289.5, 302.7)">t</text><text xml:space="preserve" font-family="ProximaNova-Bold,Proxima Nova" font-weight="bold" font-size="33.9" fill="#24A9B4" transform="matrix(1.00, 0.00, -0.00, -1.00, 300.9, 302.7)">e</text><text xml:space="preserve" font-family="ProximaNova-Bold,Proxima Nova" font-weight="bold" font-size="33.9" fill="#24A9B4" transform="matrix(1.00, 0.00, -0.00, -1.00, 319.7, 302.7)">a</text><text xml:space="preserve" font-family="ProximaNova-Bold,Proxima Nova" font-weight="bold" font-size="33.9" fill="#24A9B4" transform="matrix(1.00, 0.00, -0.00, -1.00, 338.1, 302.7)">c</text><text xml:space="preserve" font-family="ProximaNova-Bold,Proxima Nova" font-weight="bold" font-size="33.9" fill="#24A9B4" transform="matrix(1.00, 0.00, -0.00, -1.00, 355.0, 302.7)">h</text><text xml:space="preserve" font-family="ProximaNova-Bold,Proxima Nova" font-weight="bold" font-size="33.9" fill="#24A9B4" transform="matrix(1.00, 0.00, -0.00, -1.00, 374.6, 302.7)">i</text><text xml:space="preserve" font-family="ProximaNova-Bold,Proxima Nova" font-weight="bold" font-size="33.9" fill="#24A9B4" transform="matrix(1.00, 0.00, -0.00, -1.00, 383.2, 302.7)">n</text><text xml:space="preserve" font-family="ProximaNova-Bold,Proxima Nova" font-weight="bold" font-size="33.9" fill="#24A9B4" transform="matrix(1.00, 0.00, -0.00, -1.00, 402.8, 302.7)">g</text><text xml:space="preserve" font-family="ProximaNova-Bold,Proxima Nova" font-weight="bold" font-size="33.9" fill="#24A9B4" transform="matrix(1.00, 0.00, -0.00, -1.00, 422.6, 302.7)"> </text><text xml:space="preserve" font-family="ProximaNova-Bold,Proxima Nova" font-weight="bold" font-size="33.9" fill="#24A9B4" transform="matrix(1.00, 0.00, -0.00, -1.00, 431.3, 302.7)">a</text><text xml:space="preserve" font-family="ProximaNova-Bold,Proxima Nova" font-weight="bold" font-size="33.9" fill="#24A9B4" transform="matrix(1.00, 0.00, -0.00, -1.00, 449.7, 302.7)">s</text><text xml:space="preserve" font-family="ProximaNova-Bold,Proxima Nova" font-weight="bold" font-size="33.9" fill="#24A9B4" transform="matrix(1.00, 0.00, -0.00, -1.00, 465.9, 302.7)">s</text><text xml:space="preserve" font-family="ProximaNova-Bold,Proxima Nova" font-weight="bold" font-size="33.9" fill="#24A9B4" transform="matrix(1.00, 0.00, -0.00, -1.00, 482.1, 302.7)">i</text><text xml:space="preserve" font-family="ProximaNova-Bold,Proxima Nova" font-weight="bold" font-size="33.9" fill="#24A9B4" transform="matrix(1.00, 0.00, -0.00, -1.00, 490.6, 302.7)">s</text><text xml:space="preserve" font-family="ProximaNova-Bold,Proxima Nova" font-weight="bold" font-size="33.9" fill="#24A9B4" transform="matrix(1.00, 0.00, -0.00, -1.00, 506.8, 302.7)">t</text><text xml:space="preserve" font-family="ProximaNova-Bold,Proxima Nova" font-weight="bold" font-size="33.9" fill="#24A9B4" transform="matrix(1.00, 0.00, -0.00, -1.00, 518.2, 302.7)">a</text><text xml:space="preserve" font-family="ProximaNova-Bold,Proxima Nova" font-weight="bold" font-size="33.9" fill="#24A9B4" transform="matrix(1.00, 0.00, -0.00, -1.00, 536.6, 302.7)">n</text><text xml:space="preserve" font-family="ProximaNova-Bold,Proxima Nova" font-weight="bold" font-size="33.9" fill="#24A9B4" transform="matrix(1.00, 0.00, -0.00, -1.00, 556.2, 302.7)">t</text><text xml:space="preserve" font-family="ProximaNova-Bold,Proxima Nova" font-weight="bold" font-size="33.9" fill="#24A9B4" transform="matrix(1.00, 0.00, -0.00, -1.00, 567.7, 302.7)">s</text><text xml:space="preserve" font-family="ProximaNova-Bold,Proxima Nova" font-weight="bold" font-size="33.9" fill="#24A9B4" transform="matrix(1.00, 0.00, -0.00, -1.00, 583.9, 302.7)">,</text><text xml:space="preserve" font-family="ProximaNova-Bold,Proxima Nova" font-weight="bold" font-size="33.9" fill="#24A9B4" transform="matrix(1.00, 0.00, -0.00, -1.00, 592.5, 302.7)"> </text><text xml:space="preserve" font-family="ProximaNova-Bold,Proxima Nova" font-weight="bold" font-size="33.9" fill="#24A9B4" transform="matrix(1.00, 0.00, -0.00, -1.00, 601.2, 302.7)">h</text><text xml:space="preserve" font-family="ProximaNova-Bold,Proxima Nova" font-weight="bold" font-size="33.9" fill="#24A9B4" transform="matrix(1.00, 0.00, -0.00, -1.00, 620.9, 302.7)">o</text><text xml:space="preserve" font-family="ProximaNova-Bold,Proxima Nova" font-weight="bold" font-size="33.9" fill="#24A9B4" transform="matrix(1.00, 0.00, -0.00, -1.00, 640.3, 302.7)">s</text><text xml:space="preserve" font-family="ProximaNova-Bold,Proxima Nova" font-weight="bold" font-size="33.9" fill="#24A9B4" transform="matrix(1.00, 0.00, -0.00, -1.00, 656.5, 302.7)">t</text><text xml:space="preserve" font-family="ProximaNova-Bold,Proxima Nova" font-weight="bold" font-size="33.9" fill="#24A9B4" transform="matrix(1.00, 0.00, -0.00, -1.00, 667.9, 302.7)">s</text><text xml:space="preserve" font-family="ProximaNova-Bold,Proxima Nova" font-weight="bold" font-size="33.9" fill="#24A9B4" transform="matrix(1.00, 0.00, -0.00, -1.00, 684.1, 302.7)">,</text><text xml:space="preserve" font-family="ProximaNova-Bold,Proxima Nova" font-weight="bold" font-size="33.9" fill="#24A9B4" transform="matrix(1.00, 0.00, -0.00, -1.00, 692.7, 302.7)"> </text><text xml:space="preserve" font-family="ProximaNova-Bold,Proxima Nova" font-weight="bold" font-size="33.9" fill="#24A9B4" transform="matrix(1.00, 0.00, -0.00, -1.00, 701.5, 302.7)">a</text><text xml:space="preserve" font-family="ProximaNova-Bold,Proxima Nova" font-weight="bold" font-size="33.9" fill="#24A9B4" transform="matrix(1.00, 0.00, -0.00, -1.00, 719.9, 302.7)">n</text><text xml:space="preserve" font-family="ProximaNova-Bold,Proxima Nova" font-weight="bold" font-size="33.9" fill="#24A9B4" transform="matrix(1.00, 0.00, -0.00, -1.00, 739.5, 302.7)">d</text><text xml:space="preserve" font-family="ProximaNova-Bold,Proxima Nova" font-weight="bold" font-size="33.9" fill="#24A9B4" transform="matrix(1.00, 0.00, -0.00, -1.00, 759.3, 302.7)"> </text><text xml:space="preserve" font-family="ProximaNova-Bold,Proxima Nova" font-weight="bold" font-size="33.9" fill="#24A9B4" transform="matrix(1.00, 0.00, -0.00, -1.00, 768.0, 302.7)">s</text><text xml:space="preserve" font-family="ProximaNova-Bold,Proxima Nova" font-weight="bold" font-size="33.9" fill="#24A9B4" transform="matrix(1.00, 0.00, -0.00, -1.00, 784.2, 302.7)">p</text><text xml:space="preserve" font-family="ProximaNova-Bold,Proxima Nova" font-weight="bold" font-size="33.9" fill="#24A9B4" transform="matrix(1.00, 0.00, -0.00, -1.00, 803.9, 302.7)">o</text><text xml:space="preserve" font-family="ProximaNova-Bold,Proxima Nova" font-weight="bold" font-size="33.9" fill="#24A9B4" transform="matrix(1.00, 0.00, -0.00, -1.00, 823.4, 302.7)">n</text><text xml:space="preserve" font-family="ProximaNova-Bold,Proxima Nova" font-weight="bold" font-size="33.9" fill="#24A9B4" transform="matrix(1.00, 0.00, -0.00, -1.00, 843.0, 302.7)">s</text><text xml:space="preserve" font-family="ProximaNova-Bold,Proxima Nova" font-weight="bold" font-size="33.9" fill="#24A9B4" transform="matrix(1.00, 0.00, -0.00, -1.00, 859.2, 302.7)">o</text><text xml:space="preserve" font-family="ProximaNova-Bold,Proxima Nova" font-weight="bold" font-size="33.9" fill="#24A9B4" transform="matrix(1.00, 0.00, -0.00, -1.00, 878.7, 302.7)">r</text><text xml:space="preserve" font-family="ProximaNova-Bold,Proxima Nova" font-weight="bold" font-size="33.9" fill="#24A9B4" transform="matrix(1.00, 0.00, -0.00, -1.00, 890.9, 302.7)">s</text><text xml:space="preserve" font-family="ProximaNova-Bold,Proxima Nova" font-weight="bold" font-size="33.9" fill="#24A9B4" transform="matrix(1.00, 0.00, -0.00, -1.00, 907.0, 302.7)">!</text><text xml:space="preserve" font-family="LucidaGrande-Bold,Lucida Grande" font-weight="bold" font-size="32.3" fill="#24A9B4" transform="matrix(1.00, 0.00, -0.00, -1.00, 915.7, 302.7)"> </text><text xml:space="preserve" font-family="LucidaGrande-Bold,Lucida Grande" font-weight="bold" font-size="32.3" fill="#24A9B4" transform="matrix(1.00, 0.00, -0.00, -1.00, 512.0, 262.4)"> </text><text xml:space="preserve" font-family="ProximaNova-Bold,Proxima Nova" font-weight="bold" font-size="32.3" fill="#626262" transform="matrix(1.00, 0.00, -0.00, -1.00, 266.5, 222.4)">W</text><text xml:space="preserve" font-family="ProximaNova-Bold,Proxima Nova" font-weight="bold" font-size="32.3" fill="#626262" transform="matrix(1.00, 0.00, -0.00, -1.00, 294.9, 222.4)">e</text><text xml:space="preserve" font-family="ProximaNova-Bold,Proxima Nova" font-weight="bold" font-size="32.3" fill="#626262" transform="matrix(1.00, 0.00, -0.00, -1.00, 312.8, 222.4)"> </text><text xml:space="preserve" font-family="ProximaNova-Bold,Proxima Nova" font-weight="bold" font-size="32.3" fill="#626262" transform="matrix(1.00, 0.00, -0.00, -1.00, 321.1, 222.4)">w</text><text xml:space="preserve" font-family="ProximaNova-Bold,Proxima Nova" font-weight="bold" font-size="32.3" fill="#626262" transform="matrix(1.00, 0.00, -0.00, -1.00, 346.0, 222.4)">o</text><text xml:space="preserve" font-family="ProximaNova-Bold,Proxima Nova" font-weight="bold" font-size="32.3" fill="#626262" transform="matrix(1.00, 0.00, -0.00, -1.00, 364.6, 222.4)">u</text><text xml:space="preserve" font-family="ProximaNova-Bold,Proxima Nova" font-weight="bold" font-size="32.3" fill="#626262" transform="matrix(1.00, 0.00, -0.00, -1.00, 383.4, 222.4)">l</text><text xml:space="preserve" font-family="ProximaNova-Bold,Proxima Nova" font-weight="bold" font-size="32.3" fill="#626262" transform="matrix(1.00, 0.00, -0.00, -1.00, 391.5, 222.4)">d</text><text xml:space="preserve" font-family="ProximaNova-Bold,Proxima Nova" font-weight="bold" font-size="32.3" fill="#626262" transform="matrix(1.00, 0.00, -0.00, -1.00, 410.5, 222.4)">n</text><text xml:space="preserve" font-family="ProximaNova-Bold,Proxima Nova" font-weight="bold" font-size="32.3" fill="#626262" transform="matrix(1.00, 0.00, -0.00, -1.00, 428.8, 222.4)">’</text><text xml:space="preserve" font-family="ProximaNova-Bold,Proxima Nova" font-weight="bold" font-size="32.3" fill="#626262" transform="matrix(1.00, 0.00, -0.00, -1.00, 437.0, 222.4)">t</text><text xml:space="preserve" font-family="ProximaNova-Bold,Proxima Nova" font-weight="bold" font-size="32.3" fill="#626262" transform="matrix(1.00, 0.00, -0.00, -1.00, 448.0, 222.4)"> </text><text xml:space="preserve" font-family="ProximaNova-Bold,Proxima Nova" font-weight="bold" font-size="32.3" fill="#626262" transform="matrix(1.00, 0.00, -0.00, -1.00, 456.3, 222.4)">b</text><text xml:space="preserve" font-family="ProximaNova-Bold,Proxima Nova" font-weight="bold" font-size="32.3" fill="#626262" transform="matrix(1.00, 0.00, -0.00, -1.00, 475.2, 222.4)">e</text><text xml:space="preserve" font-family="ProximaNova-Bold,Proxima Nova" font-weight="bold" font-size="32.3" fill="#626262" transform="matrix(1.00, 0.00, -0.00, -1.00, 493.1, 222.4)"> </text><text xml:space="preserve" font-family="ProximaNova-Bold,Proxima Nova" font-weight="bold" font-size="32.3" fill="#626262" transform="matrix(1.00, 0.00, -0.00, -1.00, 501.4, 222.4)">h</text><text xml:space="preserve" font-family="ProximaNova-Bold,Proxima Nova" font-weight="bold" font-size="32.3" fill="#626262" transform="matrix(1.00, 0.00, -0.00, -1.00, 520.2, 222.4)">e</text><text xml:space="preserve" font-family="ProximaNova-Bold,Proxima Nova" font-weight="bold" font-size="32.3" fill="#626262" transform="matrix(1.00, 0.00, -0.00, -1.00, 538.1, 222.4)">r</text><text xml:space="preserve" font-family="ProximaNova-Bold,Proxima Nova" font-weight="bold" font-size="32.3" fill="#626262" transform="matrix(1.00, 0.00, -0.00, -1.00, 549.7, 222.4)">e</text><text xml:space="preserve" font-family="ProximaNova-Bold,Proxima Nova" font-weight="bold" font-size="32.3" fill="#626262" transform="matrix(1.00, 0.00, -0.00, -1.00, 567.6, 222.4)"> </text><text xml:space="preserve" font-family="ProximaNova-Bold,Proxima Nova" font-weight="bold" font-size="32.3" fill="#626262" transform="matrix(1.00, 0.00, -0.00, -1.00, 575.9, 222.4)">w</text><text xml:space="preserve" font-family="ProximaNova-Bold,Proxima Nova" font-weight="bold" font-size="32.3" fill="#626262" transform="matrix(1.00, 0.00, -0.00, -1.00, 600.8, 222.4)">i</text><text xml:space="preserve" font-family="ProximaNova-Bold,Proxima Nova" font-weight="bold" font-size="32.3" fill="#626262" transform="matrix(1.00, 0.00, -0.00, -1.00, 609.0, 222.4)">t</text><text xml:space="preserve" font-family="ProximaNova-Bold,Proxima Nova" font-weight="bold" font-size="32.3" fill="#626262" transform="matrix(1.00, 0.00, -0.00, -1.00, 619.9, 222.4)">h</text><text xml:space="preserve" font-family="ProximaNova-Bold,Proxima Nova" font-weight="bold" font-size="32.3" fill="#626262" transform="matrix(1.00, 0.00, -0.00, -1.00, 638.7, 222.4)">o</text><text xml:space="preserve" font-family="ProximaNova-Bold,Proxima Nova" font-weight="bold" font-size="32.3" fill="#626262" transform="matrix(1.00, 0.00, -0.00, -1.00, 657.3, 222.4)">u</text><text xml:space="preserve" font-family="ProximaNova-Bold,Proxima Nova" font-weight="bold" font-size="32.3" fill="#626262" transform="matrix(1.00, 0.00, -0.00, -1.00, 676.0, 222.4)">t</text><text xml:space="preserve" font-family="ProximaNova-Bold,Proxima Nova" font-weight="bold" font-size="32.3" fill="#626262" transform="matrix(1.00, 0.00, -0.00, -1.00, 686.9, 222.4)"> </text><text xml:space="preserve" font-family="ProximaNova-Bold,Proxima Nova" font-weight="bold" font-size="32.3" fill="#626262" transform="matrix(1.00, 0.00, -0.00, -1.00, 695.2, 222.4)">y</text><text xml:space="preserve" font-family="ProximaNova-Bold,Proxima Nova" font-weight="bold" font-size="32.3" fill="#626262" transform="matrix(1.00, 0.00, -0.00, -1.00, 711.8, 222.4)">o</text><text xml:space="preserve" font-family="ProximaNova-Bold,Proxima Nova" font-weight="bold" font-size="32.3" fill="#626262" transform="matrix(1.00, 0.00, -0.00, -1.00, 730.4, 222.4)">u</text><text xml:space="preserve" font-family="ProximaNova-Bold,Proxima Nova" font-weight="bold" font-size="32.3" fill="#626262" transform="matrix(1.00, 0.00, -0.00, -1.00, 749.1, 222.4)">.</text><image xlink:href="../../F5D1AEDB-A173-4D32-9D83-6170DA6D13D3/assets/49A94E33100C09468C2CE37CB5B6E9E5.png" width="381.00" height="79.00" transform="matrix(1.00, 0.00, -0.00, -1.00, 579.5, 118.5)"></image><image xlink:href="../../2FD20894-6F4F-4710-B0A2-F651BC729533/assets/75A3E5DDA0E974C0F04078384F272584.png" width="702.00" height="218.00" transform="matrix(0.79, 0.00, -0.00, -0.79, 233.7, 595.4)"></image></g></svg>